<svg width="18" height="18" viewBox="0 0 18 18" fill="none" xmlns="http://www.w3.org/2000/svg">
<g filter="url(#filter0_d_1396_56)">
<rect x="1" width="16" height="16" rx="4.57143" fill="url(#paint0_linear_1396_56)"/>
</g>
<path d="M10.8086 4.52588C10.6085 4.38978 10.4514 4.24757 10.244 4.12171C10.1475 4.06309 9.9588 4.04306 9.89761 3.94849C9.75195 3.72339 9.38156 3.61333 9.1919 3.39996C8.82475 2.98692 8.1865 2.90918 7.66181 2.90918C7.53671 2.90918 7.41161 2.90918 7.2865 2.90918C7.14785 2.90918 7.09862 3.05431 6.96573 3.11127C6.67705 3.23499 6.54968 3.4012 6.33701 3.60205C6.20303 3.72859 5.9585 4.06213 5.9585 4.26605C5.9585 4.50771 5.72965 4.87281 5.62489 5.10327C5.38418 5.63284 5.37187 6.35218 5.26883 6.91886C5.21204 7.23121 5.26563 7.60155 5.26563 7.91967C5.26563 8.28372 5.20789 8.63532 5.20789 9.00068C5.20789 9.62644 5.00413 10.385 5.19506 11.0055C5.30843 11.374 5.36714 11.7871 5.65376 12.0737C6.05853 12.4785 6.45799 12.7169 6.96573 12.9558C7.27966 13.1036 7.87772 13.0713 8.21675 13.0713C8.66986 13.0713 9.27632 13.1774 9.70835 13.0424C10.0652 12.9309 10.4104 12.9012 10.7509 12.712C11.1514 12.4895 11.5272 12.1705 11.8736 11.8556C12.3245 11.4456 12.6281 10.8415 12.8166 10.2549C12.8637 10.1084 12.8471 9.90912 12.8744 9.7545C12.9238 9.47467 13.0287 9.20911 13.0572 8.9237C13.0945 8.55123 13.1615 8.17801 13.1759 7.80419C13.2119 6.86851 13.3923 5.88839 12.6274 5.27649C12.4685 5.14938 12.3015 5.20736 12.1943 5.01987C12.1503 4.94284 11.8146 4.84563 11.7196 4.76967C11.5921 4.66765 11.3863 4.75719 11.2705 4.61249C11.1694 4.48615 10.9634 4.46814 10.8086 4.46814" stroke="white" stroke-width="0.228571" stroke-linecap="round"/>
<path d="M7.11322 6.77759C6.98361 6.79379 6.93271 7.15081 7.02981 7.17856C7.20873 7.22967 7.34417 6.92117 7.34417 6.77759" stroke="white" stroke-width="0.228571" stroke-linecap="round"/>
<path d="M11.4436 6.48901C11.4163 6.27054 11.0937 6.83032 11.3025 6.88998C11.5752 6.96789 11.5591 6.5567 11.5591 6.37354" stroke="white" stroke-width="0.228571" stroke-linecap="round"/>
<path d="M8.26807 9.43372C8.28115 9.32907 9.42596 9.98119 9.56399 10.0079C9.69318 10.0329 9.81809 10.0658 9.94572 10.0977C10.2439 10.1723 10.4032 9.94513 10.6161 9.76732C10.849 9.57292 11.172 9.41914 11.3571 9.1771C11.553 8.92094 11.6613 8.64597 11.7902 8.33667" stroke="white" stroke-width="0.228571" stroke-linecap="round"/>
<path d="M13.2914 7.8169C13.5062 7.77394 13.7076 7.51857 13.8495 7.37423C14.0124 7.20861 14.1276 7.02495 14.273 6.84816C14.4502 6.63255 14.6566 6.50616 14.7605 6.23228C14.9634 5.69738 15.0236 5.03497 15.0236 4.46802" stroke="white" stroke-width="0.228571" stroke-linecap="round"/>
<path d="M5.19129 8.70045C4.97735 7.77336 3.83833 7.30633 3.34363 6.55126C3.04055 6.08867 2.93945 5.42294 2.93945 4.88965" stroke="white" stroke-width="0.228571" stroke-linecap="round"/>
<path d="M10.8064 6.22096C10.8479 6.21576 10.9094 6.1094 10.9332 6.08037C11.0304 5.96205 11.1475 5.92158 11.2587 5.82516C11.373 5.72614 11.4884 5.63796 11.6041 5.56079" stroke="white" stroke-width="0.228571" stroke-linecap="round"/>
<path d="M7.06543 5.91844C7.07052 5.8879 7.09234 5.95377 7.09599 5.9597C7.13066 6.01604 7.20713 6.05464 7.25645 6.09723C7.31779 6.15021 7.38355 6.25291 7.45664 6.28214C7.55366 6.32095 7.64662 6.38606 7.7531 6.38606" stroke="white" stroke-width="0.228571" stroke-linecap="round"/>
<defs>
<filter id="filter0_d_1396_56" x="0.0857143" y="0" width="17.8286" height="17.8286" filterUnits="userSpaceOnUse" color-interpolation-filters="sRGB">
<feFlood flood-opacity="0" result="BackgroundImageFix"/>
<feColorMatrix in="SourceAlpha" type="matrix" values="0 0 0 0 0 0 0 0 0 0 0 0 0 0 0 0 0 0 127 0" result="hardAlpha"/>
<feOffset dy="0.914286"/>
<feGaussianBlur stdDeviation="0.457143"/>
<feComposite in2="hardAlpha" operator="out"/>
<feColorMatrix type="matrix" values="0 0 0 0 0 0 0 0 0 0 0 0 0 0 0 0 0 0 0.25 0"/>
<feBlend mode="normal" in2="BackgroundImageFix" result="effect1_dropShadow_1396_56"/>
<feBlend mode="normal" in="SourceGraphic" in2="effect1_dropShadow_1396_56" result="shape"/>
</filter>
<linearGradient id="paint0_linear_1396_56" x1="9" y1="0" x2="9" y2="16" gradientUnits="userSpaceOnUse">
<stop stop-color="#2656FD"/>
<stop offset="1" stop-color="#173397"/>
</linearGradient>
</defs>
</svg>
