<svg xmlns="http://www.w3.org/2000/svg" viewBox="0 0 1920 919" preserveAspectRatio="xMidYMid" width="1920" height="919" style="shape-rendering: auto; display: block; background: rgb(46, 93, 254);" xmlns:xlink="http://www.w3.org/1999/xlink"><g><g transform="translate(-100 297.00558030901266) rotate(0)">
  <animateTransform begin="-57.973417529467376s" repeatCount="indefinite" dur="66.66666666666667s" values="-100 297.00558030901266;1920 297.00558030901266" keyTimes="0;1" type="translate" attributeName="transform"></animateTransform>
  <path transform="scale(0.55)" fill="#ffffff" d="M84.717,33.597c0.791-2.503,1.186-5.138,1.186-7.773C85.903,11.594,74.308,0,60.079,0 c-9.881,0-18.445,5.534-22.793,13.702c-1.581-0.527-3.426-0.791-5.138-0.791c-9.486,0-17.128,7.642-17.128,17.128 c0,1.186,0.132,2.372,0.395,3.426C6.719,34.783,0,42.424,0,51.515C0,61.66,8.169,69.829,18.314,69.829h63.373 C91.831,69.829,100,61.66,100,51.515C99.868,42.556,93.281,35.046,84.717,33.597z"></path>
</g><g transform="translate(-100 652.1001924144826) rotate(0)">
  <animateTransform begin="-15.115894814588863s" repeatCount="indefinite" dur="66.66666666666667s" values="-100 652.1001924144826;1920 652.1001924144826" keyTimes="0;1" type="translate" attributeName="transform"></animateTransform>
  <path transform="scale(0.55)" fill="#ffffff" d="M84.717,33.597c0.791-2.503,1.186-5.138,1.186-7.773C85.903,11.594,74.308,0,60.079,0 c-9.881,0-18.445,5.534-22.793,13.702c-1.581-0.527-3.426-0.791-5.138-0.791c-9.486,0-17.128,7.642-17.128,17.128 c0,1.186,0.132,2.372,0.395,3.426C6.719,34.783,0,42.424,0,51.515C0,61.66,8.169,69.829,18.314,69.829h63.373 C91.831,69.829,100,61.66,100,51.515C99.868,42.556,93.281,35.046,84.717,33.597z"></path>
</g><g transform="translate(-100 264.2448344061114) rotate(0)">
  <animateTransform begin="-41.91633237104374s" repeatCount="indefinite" dur="66.66666666666667s" values="-100 264.2448344061114;1920 264.2448344061114" keyTimes="0;1" type="translate" attributeName="transform"></animateTransform>
  <path transform="scale(0.55)" fill="#ffffff" d="M84.717,33.597c0.791-2.503,1.186-5.138,1.186-7.773C85.903,11.594,74.308,0,60.079,0 c-9.881,0-18.445,5.534-22.793,13.702c-1.581-0.527-3.426-0.791-5.138-0.791c-9.486,0-17.128,7.642-17.128,17.128 c0,1.186,0.132,2.372,0.395,3.426C6.719,34.783,0,42.424,0,51.515C0,61.66,8.169,69.829,18.314,69.829h63.373 C91.831,69.829,100,61.66,100,51.515C99.868,42.556,93.281,35.046,84.717,33.597z"></path>
</g><g transform="translate(-100 541.6258738132708) rotate(0)">
  <animateTransform begin="-57.143092765334586s" repeatCount="indefinite" dur="66.66666666666667s" values="-100 541.6258738132708;1920 541.6258738132708" keyTimes="0;1" type="translate" attributeName="transform"></animateTransform>
  <path transform="scale(0.55)" fill="#ffffff" d="M84.717,33.597c0.791-2.503,1.186-5.138,1.186-7.773C85.903,11.594,74.308,0,60.079,0 c-9.881,0-18.445,5.534-22.793,13.702c-1.581-0.527-3.426-0.791-5.138-0.791c-9.486,0-17.128,7.642-17.128,17.128 c0,1.186,0.132,2.372,0.395,3.426C6.719,34.783,0,42.424,0,51.515C0,61.66,8.169,69.829,18.314,69.829h63.373 C91.831,69.829,100,61.66,100,51.515C99.868,42.556,93.281,35.046,84.717,33.597z"></path>
</g><g transform="translate(-100 543.247374310704) rotate(0)">
  <animateTransform begin="-56.41693466873815s" repeatCount="indefinite" dur="66.66666666666667s" values="-100 543.247374310704;1920 543.247374310704" keyTimes="0;1" type="translate" attributeName="transform"></animateTransform>
  <path transform="scale(0.55)" fill="#ffffff" d="M84.717,33.597c0.791-2.503,1.186-5.138,1.186-7.773C85.903,11.594,74.308,0,60.079,0 c-9.881,0-18.445,5.534-22.793,13.702c-1.581-0.527-3.426-0.791-5.138-0.791c-9.486,0-17.128,7.642-17.128,17.128 c0,1.186,0.132,2.372,0.395,3.426C6.719,34.783,0,42.424,0,51.515C0,61.66,8.169,69.829,18.314,69.829h63.373 C91.831,69.829,100,61.66,100,51.515C99.868,42.556,93.281,35.046,84.717,33.597z"></path>
</g><g transform="translate(-100 388.78594429888057) rotate(0)">
  <animateTransform begin="-36.931931466260544s" repeatCount="indefinite" dur="66.66666666666667s" values="-100 388.78594429888057;1920 388.78594429888057" keyTimes="0;1" type="translate" attributeName="transform"></animateTransform>
  <path transform="scale(0.55)" fill="#ffffff" d="M84.717,33.597c0.791-2.503,1.186-5.138,1.186-7.773C85.903,11.594,74.308,0,60.079,0 c-9.881,0-18.445,5.534-22.793,13.702c-1.581-0.527-3.426-0.791-5.138-0.791c-9.486,0-17.128,7.642-17.128,17.128 c0,1.186,0.132,2.372,0.395,3.426C6.719,34.783,0,42.424,0,51.515C0,61.66,8.169,69.829,18.314,69.829h63.373 C91.831,69.829,100,61.66,100,51.515C99.868,42.556,93.281,35.046,84.717,33.597z"></path>
</g><g transform="translate(-100 751.7056013077352) rotate(0)">
  <animateTransform begin="-1.4583770240977587s" repeatCount="indefinite" dur="66.66666666666667s" values="-100 751.7056013077352;1920 751.7056013077352" keyTimes="0;1" type="translate" attributeName="transform"></animateTransform>
  <path transform="scale(0.55)" fill="#ffffff" d="M84.717,33.597c0.791-2.503,1.186-5.138,1.186-7.773C85.903,11.594,74.308,0,60.079,0 c-9.881,0-18.445,5.534-22.793,13.702c-1.581-0.527-3.426-0.791-5.138-0.791c-9.486,0-17.128,7.642-17.128,17.128 c0,1.186,0.132,2.372,0.395,3.426C6.719,34.783,0,42.424,0,51.515C0,61.66,8.169,69.829,18.314,69.829h63.373 C91.831,69.829,100,61.66,100,51.515C99.868,42.556,93.281,35.046,84.717,33.597z"></path>
</g><g transform="translate(-100 45.48525702545093) rotate(0)">
  <animateTransform begin="-52.78807057450742s" repeatCount="indefinite" dur="66.66666666666667s" values="-100 45.48525702545093;1920 45.48525702545093" keyTimes="0;1" type="translate" attributeName="transform"></animateTransform>
  <path transform="scale(0.55)" fill="#ffffff" d="M84.717,33.597c0.791-2.503,1.186-5.138,1.186-7.773C85.903,11.594,74.308,0,60.079,0 c-9.881,0-18.445,5.534-22.793,13.702c-1.581-0.527-3.426-0.791-5.138-0.791c-9.486,0-17.128,7.642-17.128,17.128 c0,1.186,0.132,2.372,0.395,3.426C6.719,34.783,0,42.424,0,51.515C0,61.66,8.169,69.829,18.314,69.829h63.373 C91.831,69.829,100,61.66,100,51.515C99.868,42.556,93.281,35.046,84.717,33.597z"></path>
</g><g transform="translate(-100 752.6674342952227) rotate(0)">
  <animateTransform begin="-23.082965143413638s" repeatCount="indefinite" dur="66.66666666666667s" values="-100 752.6674342952227;1920 752.6674342952227" keyTimes="0;1" type="translate" attributeName="transform"></animateTransform>
  <path transform="scale(0.55)" fill="#ffffff" d="M84.717,33.597c0.791-2.503,1.186-5.138,1.186-7.773C85.903,11.594,74.308,0,60.079,0 c-9.881,0-18.445,5.534-22.793,13.702c-1.581-0.527-3.426-0.791-5.138-0.791c-9.486,0-17.128,7.642-17.128,17.128 c0,1.186,0.132,2.372,0.395,3.426C6.719,34.783,0,42.424,0,51.515C0,61.66,8.169,69.829,18.314,69.829h63.373 C91.831,69.829,100,61.66,100,51.515C99.868,42.556,93.281,35.046,84.717,33.597z"></path>
</g><g transform="translate(-100 208.04001804777153) rotate(0)">
  <animateTransform begin="-26.788253391227684s" repeatCount="indefinite" dur="66.66666666666667s" values="-100 208.04001804777153;1920 208.04001804777153" keyTimes="0;1" type="translate" attributeName="transform"></animateTransform>
  <path transform="scale(0.55)" fill="#ffffff" d="M84.717,33.597c0.791-2.503,1.186-5.138,1.186-7.773C85.903,11.594,74.308,0,60.079,0 c-9.881,0-18.445,5.534-22.793,13.702c-1.581-0.527-3.426-0.791-5.138-0.791c-9.486,0-17.128,7.642-17.128,17.128 c0,1.186,0.132,2.372,0.395,3.426C6.719,34.783,0,42.424,0,51.515C0,61.66,8.169,69.829,18.314,69.829h63.373 C91.831,69.829,100,61.66,100,51.515C99.868,42.556,93.281,35.046,84.717,33.597z"></path>
</g><g transform="translate(-100 521.1335322665515) rotate(0)">
  <animateTransform begin="-31.310475775634558s" repeatCount="indefinite" dur="66.66666666666667s" values="-100 521.1335322665515;1920 521.1335322665515" keyTimes="0;1" type="translate" attributeName="transform"></animateTransform>
  <path transform="scale(0.55)" fill="#ffffff" d="M84.717,33.597c0.791-2.503,1.186-5.138,1.186-7.773C85.903,11.594,74.308,0,60.079,0 c-9.881,0-18.445,5.534-22.793,13.702c-1.581-0.527-3.426-0.791-5.138-0.791c-9.486,0-17.128,7.642-17.128,17.128 c0,1.186,0.132,2.372,0.395,3.426C6.719,34.783,0,42.424,0,51.515C0,61.66,8.169,69.829,18.314,69.829h63.373 C91.831,69.829,100,61.66,100,51.515C99.868,42.556,93.281,35.046,84.717,33.597z"></path>
</g><g transform="translate(-100 664.9611200282917) rotate(0)">
  <animateTransform begin="-11.472518866719694s" repeatCount="indefinite" dur="33.333333333333336s" values="-100 664.9611200282917;1920 664.9611200282917" keyTimes="0;1" type="translate" attributeName="transform"></animateTransform>
  <path transform="scale(0.7)" fill="#ffffff" d="M84.717,33.597c0.791-2.503,1.186-5.138,1.186-7.773C85.903,11.594,74.308,0,60.079,0 c-9.881,0-18.445,5.534-22.793,13.702c-1.581-0.527-3.426-0.791-5.138-0.791c-9.486,0-17.128,7.642-17.128,17.128 c0,1.186,0.132,2.372,0.395,3.426C6.719,34.783,0,42.424,0,51.515C0,61.66,8.169,69.829,18.314,69.829h63.373 C91.831,69.829,100,61.66,100,51.515C99.868,42.556,93.281,35.046,84.717,33.597z"></path>
</g><g transform="translate(-100 893.0454636831157) rotate(0)">
  <animateTransform begin="-53.19341107761428s" repeatCount="indefinite" dur="33.333333333333336s" values="-100 893.0454636831157;1920 893.0454636831157" keyTimes="0;1" type="translate" attributeName="transform"></animateTransform>
  <path transform="scale(0.7)" fill="#ffffff" d="M84.717,33.597c0.791-2.503,1.186-5.138,1.186-7.773C85.903,11.594,74.308,0,60.079,0 c-9.881,0-18.445,5.534-22.793,13.702c-1.581-0.527-3.426-0.791-5.138-0.791c-9.486,0-17.128,7.642-17.128,17.128 c0,1.186,0.132,2.372,0.395,3.426C6.719,34.783,0,42.424,0,51.515C0,61.66,8.169,69.829,18.314,69.829h63.373 C91.831,69.829,100,61.66,100,51.515C99.868,42.556,93.281,35.046,84.717,33.597z"></path>
</g><g transform="translate(-100 467.1057966033218) rotate(0)">
  <animateTransform begin="-38.0027926067247s" repeatCount="indefinite" dur="33.333333333333336s" values="-100 467.1057966033218;1920 467.1057966033218" keyTimes="0;1" type="translate" attributeName="transform"></animateTransform>
  <path transform="scale(0.7)" fill="#ffffff" d="M84.717,33.597c0.791-2.503,1.186-5.138,1.186-7.773C85.903,11.594,74.308,0,60.079,0 c-9.881,0-18.445,5.534-22.793,13.702c-1.581-0.527-3.426-0.791-5.138-0.791c-9.486,0-17.128,7.642-17.128,17.128 c0,1.186,0.132,2.372,0.395,3.426C6.719,34.783,0,42.424,0,51.515C0,61.66,8.169,69.829,18.314,69.829h63.373 C91.831,69.829,100,61.66,100,51.515C99.868,42.556,93.281,35.046,84.717,33.597z"></path>
</g><g transform="translate(-100 693.8731356362199) rotate(0)">
  <animateTransform begin="-55.9629570713733s" repeatCount="indefinite" dur="33.333333333333336s" values="-100 693.8731356362199;1920 693.8731356362199" keyTimes="0;1" type="translate" attributeName="transform"></animateTransform>
  <path transform="scale(0.7)" fill="#ffffff" d="M84.717,33.597c0.791-2.503,1.186-5.138,1.186-7.773C85.903,11.594,74.308,0,60.079,0 c-9.881,0-18.445,5.534-22.793,13.702c-1.581-0.527-3.426-0.791-5.138-0.791c-9.486,0-17.128,7.642-17.128,17.128 c0,1.186,0.132,2.372,0.395,3.426C6.719,34.783,0,42.424,0,51.515C0,61.66,8.169,69.829,18.314,69.829h63.373 C91.831,69.829,100,61.66,100,51.515C99.868,42.556,93.281,35.046,84.717,33.597z"></path>
</g><g transform="translate(-100 129.72322090676224) rotate(0)">
  <animateTransform begin="-1.6793902156854146s" repeatCount="indefinite" dur="33.333333333333336s" values="-100 129.72322090676224;1920 129.72322090676224" keyTimes="0;1" type="translate" attributeName="transform"></animateTransform>
  <path transform="scale(0.7)" fill="#ffffff" d="M84.717,33.597c0.791-2.503,1.186-5.138,1.186-7.773C85.903,11.594,74.308,0,60.079,0 c-9.881,0-18.445,5.534-22.793,13.702c-1.581-0.527-3.426-0.791-5.138-0.791c-9.486,0-17.128,7.642-17.128,17.128 c0,1.186,0.132,2.372,0.395,3.426C6.719,34.783,0,42.424,0,51.515C0,61.66,8.169,69.829,18.314,69.829h63.373 C91.831,69.829,100,61.66,100,51.515C99.868,42.556,93.281,35.046,84.717,33.597z"></path>
</g><g transform="translate(-100 808.1678118262026) rotate(0)">
  <animateTransform begin="-20.297374969906578s" repeatCount="indefinite" dur="33.333333333333336s" values="-100 808.1678118262026;1920 808.1678118262026" keyTimes="0;1" type="translate" attributeName="transform"></animateTransform>
  <path transform="scale(0.7)" fill="#ffffff" d="M84.717,33.597c0.791-2.503,1.186-5.138,1.186-7.773C85.903,11.594,74.308,0,60.079,0 c-9.881,0-18.445,5.534-22.793,13.702c-1.581-0.527-3.426-0.791-5.138-0.791c-9.486,0-17.128,7.642-17.128,17.128 c0,1.186,0.132,2.372,0.395,3.426C6.719,34.783,0,42.424,0,51.515C0,61.66,8.169,69.829,18.314,69.829h63.373 C91.831,69.829,100,61.66,100,51.515C99.868,42.556,93.281,35.046,84.717,33.597z"></path>
</g><g transform="translate(-100 750.2250523016859) rotate(0)">
  <animateTransform begin="-3.7911224348390395s" repeatCount="indefinite" dur="33.333333333333336s" values="-100 750.2250523016859;1920 750.2250523016859" keyTimes="0;1" type="translate" attributeName="transform"></animateTransform>
  <path transform="scale(0.7)" fill="#ffffff" d="M84.717,33.597c0.791-2.503,1.186-5.138,1.186-7.773C85.903,11.594,74.308,0,60.079,0 c-9.881,0-18.445,5.534-22.793,13.702c-1.581-0.527-3.426-0.791-5.138-0.791c-9.486,0-17.128,7.642-17.128,17.128 c0,1.186,0.132,2.372,0.395,3.426C6.719,34.783,0,42.424,0,51.515C0,61.66,8.169,69.829,18.314,69.829h63.373 C91.831,69.829,100,61.66,100,51.515C99.868,42.556,93.281,35.046,84.717,33.597z"></path>
</g><g transform="translate(-100 299.0186133188804) rotate(0)">
  <animateTransform begin="-42.18886716617945s" repeatCount="indefinite" dur="33.333333333333336s" values="-100 299.0186133188804;1920 299.0186133188804" keyTimes="0;1" type="translate" attributeName="transform"></animateTransform>
  <path transform="scale(0.7)" fill="#ffffff" d="M84.717,33.597c0.791-2.503,1.186-5.138,1.186-7.773C85.903,11.594,74.308,0,60.079,0 c-9.881,0-18.445,5.534-22.793,13.702c-1.581-0.527-3.426-0.791-5.138-0.791c-9.486,0-17.128,7.642-17.128,17.128 c0,1.186,0.132,2.372,0.395,3.426C6.719,34.783,0,42.424,0,51.515C0,61.66,8.169,69.829,18.314,69.829h63.373 C91.831,69.829,100,61.66,100,51.515C99.868,42.556,93.281,35.046,84.717,33.597z"></path>
</g><g transform="translate(-100 780.8013977136892) rotate(0)">
  <animateTransform begin="-11.063085928920183s" repeatCount="indefinite" dur="33.333333333333336s" values="-100 780.8013977136892;1920 780.8013977136892" keyTimes="0;1" type="translate" attributeName="transform"></animateTransform>
  <path transform="scale(0.7)" fill="#ffffff" d="M84.717,33.597c0.791-2.503,1.186-5.138,1.186-7.773C85.903,11.594,74.308,0,60.079,0 c-9.881,0-18.445,5.534-22.793,13.702c-1.581-0.527-3.426-0.791-5.138-0.791c-9.486,0-17.128,7.642-17.128,17.128 c0,1.186,0.132,2.372,0.395,3.426C6.719,34.783,0,42.424,0,51.515C0,61.66,8.169,69.829,18.314,69.829h63.373 C91.831,69.829,100,61.66,100,51.515C99.868,42.556,93.281,35.046,84.717,33.597z"></path>
</g><g transform="translate(-100 300.62279949546297) rotate(0)">
  <animateTransform begin="-64.27043255615943s" repeatCount="indefinite" dur="33.333333333333336s" values="-100 300.62279949546297;1920 300.62279949546297" keyTimes="0;1" type="translate" attributeName="transform"></animateTransform>
  <path transform="scale(0.7)" fill="#ffffff" d="M84.717,33.597c0.791-2.503,1.186-5.138,1.186-7.773C85.903,11.594,74.308,0,60.079,0 c-9.881,0-18.445,5.534-22.793,13.702c-1.581-0.527-3.426-0.791-5.138-0.791c-9.486,0-17.128,7.642-17.128,17.128 c0,1.186,0.132,2.372,0.395,3.426C6.719,34.783,0,42.424,0,51.515C0,61.66,8.169,69.829,18.314,69.829h63.373 C91.831,69.829,100,61.66,100,51.515C99.868,42.556,93.281,35.046,84.717,33.597z"></path>
</g><g transform="translate(-100 351.9056051306307) rotate(0)">
  <animateTransform begin="-4.571459691806956s" repeatCount="indefinite" dur="33.333333333333336s" values="-100 351.9056051306307;1920 351.9056051306307" keyTimes="0;1" type="translate" attributeName="transform"></animateTransform>
  <path transform="scale(0.7)" fill="#ffffff" d="M84.717,33.597c0.791-2.503,1.186-5.138,1.186-7.773C85.903,11.594,74.308,0,60.079,0 c-9.881,0-18.445,5.534-22.793,13.702c-1.581-0.527-3.426-0.791-5.138-0.791c-9.486,0-17.128,7.642-17.128,17.128 c0,1.186,0.132,2.372,0.395,3.426C6.719,34.783,0,42.424,0,51.515C0,61.66,8.169,69.829,18.314,69.829h63.373 C91.831,69.829,100,61.66,100,51.515C99.868,42.556,93.281,35.046,84.717,33.597z"></path>
</g><g transform="translate(-100 645.2463589546146) rotate(0)">
  <animateTransform begin="-2.4553438219892083s" repeatCount="indefinite" dur="22.222222222222225s" values="-100 645.2463589546146;1920 645.2463589546146" keyTimes="0;1" type="translate" attributeName="transform"></animateTransform>
  <path transform="scale(0.85)" fill="#ffffff" d="M84.717,33.597c0.791-2.503,1.186-5.138,1.186-7.773C85.903,11.594,74.308,0,60.079,0 c-9.881,0-18.445,5.534-22.793,13.702c-1.581-0.527-3.426-0.791-5.138-0.791c-9.486,0-17.128,7.642-17.128,17.128 c0,1.186,0.132,2.372,0.395,3.426C6.719,34.783,0,42.424,0,51.515C0,61.66,8.169,69.829,18.314,69.829h63.373 C91.831,69.829,100,61.66,100,51.515C99.868,42.556,93.281,35.046,84.717,33.597z"></path>
</g><g transform="translate(-100 74.16014950907169) rotate(0)">
  <animateTransform begin="-51.144894938819235s" repeatCount="indefinite" dur="22.222222222222225s" values="-100 74.16014950907169;1920 74.16014950907169" keyTimes="0;1" type="translate" attributeName="transform"></animateTransform>
  <path transform="scale(0.85)" fill="#ffffff" d="M84.717,33.597c0.791-2.503,1.186-5.138,1.186-7.773C85.903,11.594,74.308,0,60.079,0 c-9.881,0-18.445,5.534-22.793,13.702c-1.581-0.527-3.426-0.791-5.138-0.791c-9.486,0-17.128,7.642-17.128,17.128 c0,1.186,0.132,2.372,0.395,3.426C6.719,34.783,0,42.424,0,51.515C0,61.66,8.169,69.829,18.314,69.829h63.373 C91.831,69.829,100,61.66,100,51.515C99.868,42.556,93.281,35.046,84.717,33.597z"></path>
</g><g transform="translate(-100 280.97770000817764) rotate(0)">
  <animateTransform begin="-63.913151023270316s" repeatCount="indefinite" dur="22.222222222222225s" values="-100 280.97770000817764;1920 280.97770000817764" keyTimes="0;1" type="translate" attributeName="transform"></animateTransform>
  <path transform="scale(0.85)" fill="#ffffff" d="M84.717,33.597c0.791-2.503,1.186-5.138,1.186-7.773C85.903,11.594,74.308,0,60.079,0 c-9.881,0-18.445,5.534-22.793,13.702c-1.581-0.527-3.426-0.791-5.138-0.791c-9.486,0-17.128,7.642-17.128,17.128 c0,1.186,0.132,2.372,0.395,3.426C6.719,34.783,0,42.424,0,51.515C0,61.66,8.169,69.829,18.314,69.829h63.373 C91.831,69.829,100,61.66,100,51.515C99.868,42.556,93.281,35.046,84.717,33.597z"></path>
</g><g transform="translate(-100 274.6400934939338) rotate(0)">
  <animateTransform begin="-34.250977579239404s" repeatCount="indefinite" dur="22.222222222222225s" values="-100 274.6400934939338;1920 274.6400934939338" keyTimes="0;1" type="translate" attributeName="transform"></animateTransform>
  <path transform="scale(0.85)" fill="#ffffff" d="M84.717,33.597c0.791-2.503,1.186-5.138,1.186-7.773C85.903,11.594,74.308,0,60.079,0 c-9.881,0-18.445,5.534-22.793,13.702c-1.581-0.527-3.426-0.791-5.138-0.791c-9.486,0-17.128,7.642-17.128,17.128 c0,1.186,0.132,2.372,0.395,3.426C6.719,34.783,0,42.424,0,51.515C0,61.66,8.169,69.829,18.314,69.829h63.373 C91.831,69.829,100,61.66,100,51.515C99.868,42.556,93.281,35.046,84.717,33.597z"></path>
</g><g transform="translate(-100 229.44372806090766) rotate(0)">
  <animateTransform begin="-53.98151205344151s" repeatCount="indefinite" dur="22.222222222222225s" values="-100 229.44372806090766;1920 229.44372806090766" keyTimes="0;1" type="translate" attributeName="transform"></animateTransform>
  <path transform="scale(0.85)" fill="#ffffff" d="M84.717,33.597c0.791-2.503,1.186-5.138,1.186-7.773C85.903,11.594,74.308,0,60.079,0 c-9.881,0-18.445,5.534-22.793,13.702c-1.581-0.527-3.426-0.791-5.138-0.791c-9.486,0-17.128,7.642-17.128,17.128 c0,1.186,0.132,2.372,0.395,3.426C6.719,34.783,0,42.424,0,51.515C0,61.66,8.169,69.829,18.314,69.829h63.373 C91.831,69.829,100,61.66,100,51.515C99.868,42.556,93.281,35.046,84.717,33.597z"></path>
</g><g transform="translate(-100 341.28615329137114) rotate(0)">
  <animateTransform begin="-63.41133640332665s" repeatCount="indefinite" dur="22.222222222222225s" values="-100 341.28615329137114;1920 341.28615329137114" keyTimes="0;1" type="translate" attributeName="transform"></animateTransform>
  <path transform="scale(0.85)" fill="#ffffff" d="M84.717,33.597c0.791-2.503,1.186-5.138,1.186-7.773C85.903,11.594,74.308,0,60.079,0 c-9.881,0-18.445,5.534-22.793,13.702c-1.581-0.527-3.426-0.791-5.138-0.791c-9.486,0-17.128,7.642-17.128,17.128 c0,1.186,0.132,2.372,0.395,3.426C6.719,34.783,0,42.424,0,51.515C0,61.66,8.169,69.829,18.314,69.829h63.373 C91.831,69.829,100,61.66,100,51.515C99.868,42.556,93.281,35.046,84.717,33.597z"></path>
</g><g transform="translate(-100 672.7365665967259) rotate(0)">
  <animateTransform begin="-17.699247528567657s" repeatCount="indefinite" dur="22.222222222222225s" values="-100 672.7365665967259;1920 672.7365665967259" keyTimes="0;1" type="translate" attributeName="transform"></animateTransform>
  <path transform="scale(0.85)" fill="#ffffff" d="M84.717,33.597c0.791-2.503,1.186-5.138,1.186-7.773C85.903,11.594,74.308,0,60.079,0 c-9.881,0-18.445,5.534-22.793,13.702c-1.581-0.527-3.426-0.791-5.138-0.791c-9.486,0-17.128,7.642-17.128,17.128 c0,1.186,0.132,2.372,0.395,3.426C6.719,34.783,0,42.424,0,51.515C0,61.66,8.169,69.829,18.314,69.829h63.373 C91.831,69.829,100,61.66,100,51.515C99.868,42.556,93.281,35.046,84.717,33.597z"></path>
</g><g transform="translate(-100 687.7242671097731) rotate(0)">
  <animateTransform begin="-37.73007751258834s" repeatCount="indefinite" dur="22.222222222222225s" values="-100 687.7242671097731;1920 687.7242671097731" keyTimes="0;1" type="translate" attributeName="transform"></animateTransform>
  <path transform="scale(0.85)" fill="#ffffff" d="M84.717,33.597c0.791-2.503,1.186-5.138,1.186-7.773C85.903,11.594,74.308,0,60.079,0 c-9.881,0-18.445,5.534-22.793,13.702c-1.581-0.527-3.426-0.791-5.138-0.791c-9.486,0-17.128,7.642-17.128,17.128 c0,1.186,0.132,2.372,0.395,3.426C6.719,34.783,0,42.424,0,51.515C0,61.66,8.169,69.829,18.314,69.829h63.373 C91.831,69.829,100,61.66,100,51.515C99.868,42.556,93.281,35.046,84.717,33.597z"></path>
</g><g transform="translate(-100 884.5000195882227) rotate(0)">
  <animateTransform begin="-0.741728271455257s" repeatCount="indefinite" dur="22.222222222222225s" values="-100 884.5000195882227;1920 884.5000195882227" keyTimes="0;1" type="translate" attributeName="transform"></animateTransform>
  <path transform="scale(0.85)" fill="#ffffff" d="M84.717,33.597c0.791-2.503,1.186-5.138,1.186-7.773C85.903,11.594,74.308,0,60.079,0 c-9.881,0-18.445,5.534-22.793,13.702c-1.581-0.527-3.426-0.791-5.138-0.791c-9.486,0-17.128,7.642-17.128,17.128 c0,1.186,0.132,2.372,0.395,3.426C6.719,34.783,0,42.424,0,51.515C0,61.66,8.169,69.829,18.314,69.829h63.373 C91.831,69.829,100,61.66,100,51.515C99.868,42.556,93.281,35.046,84.717,33.597z"></path>
</g><g transform="translate(-100 844.4887374309022) rotate(0)">
  <animateTransform begin="-20.72678802764244s" repeatCount="indefinite" dur="22.222222222222225s" values="-100 844.4887374309022;1920 844.4887374309022" keyTimes="0;1" type="translate" attributeName="transform"></animateTransform>
  <path transform="scale(0.85)" fill="#ffffff" d="M84.717,33.597c0.791-2.503,1.186-5.138,1.186-7.773C85.903,11.594,74.308,0,60.079,0 c-9.881,0-18.445,5.534-22.793,13.702c-1.581-0.527-3.426-0.791-5.138-0.791c-9.486,0-17.128,7.642-17.128,17.128 c0,1.186,0.132,2.372,0.395,3.426C6.719,34.783,0,42.424,0,51.515C0,61.66,8.169,69.829,18.314,69.829h63.373 C91.831,69.829,100,61.66,100,51.515C99.868,42.556,93.281,35.046,84.717,33.597z"></path>
</g><g transform="translate(-100 70.87922476294692) rotate(0)">
  <animateTransform begin="-59.284855023817386s" repeatCount="indefinite" dur="22.222222222222225s" values="-100 70.87922476294692;1920 70.87922476294692" keyTimes="0;1" type="translate" attributeName="transform"></animateTransform>
  <path transform="scale(0.85)" fill="#ffffff" d="M84.717,33.597c0.791-2.503,1.186-5.138,1.186-7.773C85.903,11.594,74.308,0,60.079,0 c-9.881,0-18.445,5.534-22.793,13.702c-1.581-0.527-3.426-0.791-5.138-0.791c-9.486,0-17.128,7.642-17.128,17.128 c0,1.186,0.132,2.372,0.395,3.426C6.719,34.783,0,42.424,0,51.515C0,61.66,8.169,69.829,18.314,69.829h63.373 C91.831,69.829,100,61.66,100,51.515C99.868,42.556,93.281,35.046,84.717,33.597z"></path>
</g><g transform="translate(-100 304.9672093830284) rotate(0)">
  <animateTransform begin="-3.158572113200873s" repeatCount="indefinite" dur="16.666666666666668s" values="-100 304.9672093830284;1920 304.9672093830284" keyTimes="0;1" type="translate" attributeName="transform"></animateTransform>
  <path transform="scale(1)" fill="#ffffff" d="M84.717,33.597c0.791-2.503,1.186-5.138,1.186-7.773C85.903,11.594,74.308,0,60.079,0 c-9.881,0-18.445,5.534-22.793,13.702c-1.581-0.527-3.426-0.791-5.138-0.791c-9.486,0-17.128,7.642-17.128,17.128 c0,1.186,0.132,2.372,0.395,3.426C6.719,34.783,0,42.424,0,51.515C0,61.66,8.169,69.829,18.314,69.829h63.373 C91.831,69.829,100,61.66,100,51.515C99.868,42.556,93.281,35.046,84.717,33.597z"></path>
</g><g transform="translate(-100 59.02658579527033) rotate(0)">
  <animateTransform begin="-61.952096019661695s" repeatCount="indefinite" dur="16.666666666666668s" values="-100 59.02658579527033;1920 59.02658579527033" keyTimes="0;1" type="translate" attributeName="transform"></animateTransform>
  <path transform="scale(1)" fill="#ffffff" d="M84.717,33.597c0.791-2.503,1.186-5.138,1.186-7.773C85.903,11.594,74.308,0,60.079,0 c-9.881,0-18.445,5.534-22.793,13.702c-1.581-0.527-3.426-0.791-5.138-0.791c-9.486,0-17.128,7.642-17.128,17.128 c0,1.186,0.132,2.372,0.395,3.426C6.719,34.783,0,42.424,0,51.515C0,61.66,8.169,69.829,18.314,69.829h63.373 C91.831,69.829,100,61.66,100,51.515C99.868,42.556,93.281,35.046,84.717,33.597z"></path>
</g><g transform="translate(-100 415.5360417523524) rotate(0)">
  <animateTransform begin="-18.838689776207595s" repeatCount="indefinite" dur="16.666666666666668s" values="-100 415.5360417523524;1920 415.5360417523524" keyTimes="0;1" type="translate" attributeName="transform"></animateTransform>
  <path transform="scale(1)" fill="#ffffff" d="M84.717,33.597c0.791-2.503,1.186-5.138,1.186-7.773C85.903,11.594,74.308,0,60.079,0 c-9.881,0-18.445,5.534-22.793,13.702c-1.581-0.527-3.426-0.791-5.138-0.791c-9.486,0-17.128,7.642-17.128,17.128 c0,1.186,0.132,2.372,0.395,3.426C6.719,34.783,0,42.424,0,51.515C0,61.66,8.169,69.829,18.314,69.829h63.373 C91.831,69.829,100,61.66,100,51.515C99.868,42.556,93.281,35.046,84.717,33.597z"></path>
</g><g transform="translate(-100 364.22620672735803) rotate(0)">
  <animateTransform begin="-56.742181751099444s" repeatCount="indefinite" dur="16.666666666666668s" values="-100 364.22620672735803;1920 364.22620672735803" keyTimes="0;1" type="translate" attributeName="transform"></animateTransform>
  <path transform="scale(1)" fill="#ffffff" d="M84.717,33.597c0.791-2.503,1.186-5.138,1.186-7.773C85.903,11.594,74.308,0,60.079,0 c-9.881,0-18.445,5.534-22.793,13.702c-1.581-0.527-3.426-0.791-5.138-0.791c-9.486,0-17.128,7.642-17.128,17.128 c0,1.186,0.132,2.372,0.395,3.426C6.719,34.783,0,42.424,0,51.515C0,61.66,8.169,69.829,18.314,69.829h63.373 C91.831,69.829,100,61.66,100,51.515C99.868,42.556,93.281,35.046,84.717,33.597z"></path>
</g><g transform="translate(-100 194.17393362442795) rotate(0)">
  <animateTransform begin="-52.92624538477833s" repeatCount="indefinite" dur="16.666666666666668s" values="-100 194.17393362442795;1920 194.17393362442795" keyTimes="0;1" type="translate" attributeName="transform"></animateTransform>
  <path transform="scale(1)" fill="#ffffff" d="M84.717,33.597c0.791-2.503,1.186-5.138,1.186-7.773C85.903,11.594,74.308,0,60.079,0 c-9.881,0-18.445,5.534-22.793,13.702c-1.581-0.527-3.426-0.791-5.138-0.791c-9.486,0-17.128,7.642-17.128,17.128 c0,1.186,0.132,2.372,0.395,3.426C6.719,34.783,0,42.424,0,51.515C0,61.66,8.169,69.829,18.314,69.829h63.373 C91.831,69.829,100,61.66,100,51.515C99.868,42.556,93.281,35.046,84.717,33.597z"></path>
</g><g transform="translate(-100 231.45680655496116) rotate(0)">
  <animateTransform begin="-41.01086047681285s" repeatCount="indefinite" dur="16.666666666666668s" values="-100 231.45680655496116;1920 231.45680655496116" keyTimes="0;1" type="translate" attributeName="transform"></animateTransform>
  <path transform="scale(1)" fill="#ffffff" d="M84.717,33.597c0.791-2.503,1.186-5.138,1.186-7.773C85.903,11.594,74.308,0,60.079,0 c-9.881,0-18.445,5.534-22.793,13.702c-1.581-0.527-3.426-0.791-5.138-0.791c-9.486,0-17.128,7.642-17.128,17.128 c0,1.186,0.132,2.372,0.395,3.426C6.719,34.783,0,42.424,0,51.515C0,61.66,8.169,69.829,18.314,69.829h63.373 C91.831,69.829,100,61.66,100,51.515C99.868,42.556,93.281,35.046,84.717,33.597z"></path>
</g><g transform="translate(-100 23.961883524582685) rotate(0)">
  <animateTransform begin="-63.96488977571703s" repeatCount="indefinite" dur="16.666666666666668s" values="-100 23.961883524582685;1920 23.961883524582685" keyTimes="0;1" type="translate" attributeName="transform"></animateTransform>
  <path transform="scale(1)" fill="#ffffff" d="M84.717,33.597c0.791-2.503,1.186-5.138,1.186-7.773C85.903,11.594,74.308,0,60.079,0 c-9.881,0-18.445,5.534-22.793,13.702c-1.581-0.527-3.426-0.791-5.138-0.791c-9.486,0-17.128,7.642-17.128,17.128 c0,1.186,0.132,2.372,0.395,3.426C6.719,34.783,0,42.424,0,51.515C0,61.66,8.169,69.829,18.314,69.829h63.373 C91.831,69.829,100,61.66,100,51.515C99.868,42.556,93.281,35.046,84.717,33.597z"></path>
</g><g transform="translate(-100 290.292370038197) rotate(0)">
  <animateTransform begin="-38.842634316843714s" repeatCount="indefinite" dur="16.666666666666668s" values="-100 290.292370038197;1920 290.292370038197" keyTimes="0;1" type="translate" attributeName="transform"></animateTransform>
  <path transform="scale(1)" fill="#ffffff" d="M84.717,33.597c0.791-2.503,1.186-5.138,1.186-7.773C85.903,11.594,74.308,0,60.079,0 c-9.881,0-18.445,5.534-22.793,13.702c-1.581-0.527-3.426-0.791-5.138-0.791c-9.486,0-17.128,7.642-17.128,17.128 c0,1.186,0.132,2.372,0.395,3.426C6.719,34.783,0,42.424,0,51.515C0,61.66,8.169,69.829,18.314,69.829h63.373 C91.831,69.829,100,61.66,100,51.515C99.868,42.556,93.281,35.046,84.717,33.597z"></path>
</g><g transform="translate(-100 900.0795207905458) rotate(0)">
  <animateTransform begin="-4.6754830544192805s" repeatCount="indefinite" dur="16.666666666666668s" values="-100 900.0795207905458;1920 900.0795207905458" keyTimes="0;1" type="translate" attributeName="transform"></animateTransform>
  <path transform="scale(1)" fill="#ffffff" d="M84.717,33.597c0.791-2.503,1.186-5.138,1.186-7.773C85.903,11.594,74.308,0,60.079,0 c-9.881,0-18.445,5.534-22.793,13.702c-1.581-0.527-3.426-0.791-5.138-0.791c-9.486,0-17.128,7.642-17.128,17.128 c0,1.186,0.132,2.372,0.395,3.426C6.719,34.783,0,42.424,0,51.515C0,61.66,8.169,69.829,18.314,69.829h63.373 C91.831,69.829,100,61.66,100,51.515C99.868,42.556,93.281,35.046,84.717,33.597z"></path>
</g><g transform="translate(-100 175.84624078726864) rotate(0)">
  <animateTransform begin="-43.34745620918428s" repeatCount="indefinite" dur="16.666666666666668s" values="-100 175.84624078726864;1920 175.84624078726864" keyTimes="0;1" type="translate" attributeName="transform"></animateTransform>
  <path transform="scale(1)" fill="#ffffff" d="M84.717,33.597c0.791-2.503,1.186-5.138,1.186-7.773C85.903,11.594,74.308,0,60.079,0 c-9.881,0-18.445,5.534-22.793,13.702c-1.581-0.527-3.426-0.791-5.138-0.791c-9.486,0-17.128,7.642-17.128,17.128 c0,1.186,0.132,2.372,0.395,3.426C6.719,34.783,0,42.424,0,51.515C0,61.66,8.169,69.829,18.314,69.829h63.373 C91.831,69.829,100,61.66,100,51.515C99.868,42.556,93.281,35.046,84.717,33.597z"></path>
</g><g transform="translate(-100 297.63757784041206) rotate(0)">
  <animateTransform begin="-17.118828892979607s" repeatCount="indefinite" dur="16.666666666666668s" values="-100 297.63757784041206;1920 297.63757784041206" keyTimes="0;1" type="translate" attributeName="transform"></animateTransform>
  <path transform="scale(1)" fill="#ffffff" d="M84.717,33.597c0.791-2.503,1.186-5.138,1.186-7.773C85.903,11.594,74.308,0,60.079,0 c-9.881,0-18.445,5.534-22.793,13.702c-1.581-0.527-3.426-0.791-5.138-0.791c-9.486,0-17.128,7.642-17.128,17.128 c0,1.186,0.132,2.372,0.395,3.426C6.719,34.783,0,42.424,0,51.515C0,61.66,8.169,69.829,18.314,69.829h63.373 C91.831,69.829,100,61.66,100,51.515C99.868,42.556,93.281,35.046,84.717,33.597z"></path>
</g><g transform="translate(-100 720.5439719535324) rotate(0)">
  <animateTransform begin="-6.625836314870034s" repeatCount="indefinite" dur="16.666666666666668s" values="-100 720.5439719535324;1920 720.5439719535324" keyTimes="0;1" type="translate" attributeName="transform"></animateTransform>
  <path transform="scale(1)" fill="#ffffff" d="M84.717,33.597c0.791-2.503,1.186-5.138,1.186-7.773C85.903,11.594,74.308,0,60.079,0 c-9.881,0-18.445,5.534-22.793,13.702c-1.581-0.527-3.426-0.791-5.138-0.791c-9.486,0-17.128,7.642-17.128,17.128 c0,1.186,0.132,2.372,0.395,3.426C6.719,34.783,0,42.424,0,51.515C0,61.66,8.169,69.829,18.314,69.829h63.373 C91.831,69.829,100,61.66,100,51.515C99.868,42.556,93.281,35.046,84.717,33.597z"></path>
</g><g></g></g><!-- [ldio] generated by https://loading.io --></svg>