<svg width="584" height="458" viewBox="0 0 584 458" fill="none" xmlns="http://www.w3.org/2000/svg">
<path d="M368.233 134.316C360.78 129.248 354.93 123.953 347.21 119.266C343.615 117.083 336.589 116.338 334.31 112.816C328.887 104.434 315.094 100.336 308.032 92.3906C294.36 77.0101 270.594 74.1152 251.056 74.1152C246.397 74.1152 241.739 74.1152 237.08 74.1152C231.917 74.1152 230.084 79.5196 225.136 81.6404C214.386 86.2473 209.643 92.4366 201.724 99.9157C196.735 104.628 187.629 117.048 187.629 124.641C187.629 133.64 179.108 147.235 175.207 155.817C166.244 175.536 165.785 202.322 161.948 223.424C159.834 235.055 161.829 248.845 161.829 260.691C161.829 274.247 159.679 287.34 159.679 300.945C159.679 324.246 152.092 352.493 159.201 375.599C163.423 389.319 165.609 404.702 176.282 415.375C191.354 430.447 206.229 439.325 225.136 448.223C236.825 453.724 259.096 452.523 271.72 452.523C288.592 452.523 311.175 456.475 327.263 451.448C340.55 447.295 353.403 446.189 366.083 439.145C380.998 430.859 394.99 418.979 407.889 407.252C424.682 391.986 435.985 369.493 443.007 347.648C444.76 342.194 444.141 334.772 445.157 329.015C446.996 318.595 450.902 308.706 451.965 298.078C453.352 284.208 455.849 270.311 456.385 256.391C457.725 221.549 464.441 185.052 435.959 162.267C430.043 157.534 423.824 159.693 419.834 152.711C418.195 149.843 405.692 146.223 402.156 143.394C397.407 139.596 389.744 142.93 385.433 137.541C381.67 132.837 373.998 132.166 368.233 132.166" stroke="black" stroke-width="7" stroke-linecap="round"/>
<path d="M230.63 218.168C225.804 218.771 223.909 232.065 227.525 233.099C234.187 235.002 239.231 223.514 239.231 218.168" stroke="black" stroke-width="7" stroke-linecap="round"/>
<path d="M391.883 207.418C390.866 199.283 378.851 220.127 386.627 222.349C396.781 225.25 396.183 209.938 396.183 203.118" stroke="black" stroke-width="7" stroke-linecap="round"/>
<path d="M273.63 317.069C274.117 313.172 316.747 337.455 321.887 338.45C326.697 339.381 331.348 340.607 336.101 341.795C347.202 344.57 353.135 336.113 361.065 329.492C369.736 322.253 381.765 316.527 388.657 307.514C395.952 297.975 399.984 287.736 404.783 276.219" stroke="black" stroke-width="7" stroke-linecap="round"/>
<path d="M460.684 256.868C468.683 255.268 476.182 245.759 481.468 240.384C487.532 234.217 491.822 227.378 497.235 220.795C503.836 212.766 511.522 208.06 515.39 197.861C522.946 177.943 525.185 153.277 525.185 132.166" stroke="black" stroke-width="7" stroke-linecap="round"/>
<path d="M159.062 289.766C151.096 255.244 108.682 237.853 90.2607 209.736C78.9751 192.511 75.2104 167.721 75.2104 147.863" stroke="black" stroke-width="7" stroke-linecap="round"/>
<path d="M368.153 197.438C369.7 197.245 371.988 193.284 372.876 192.203C376.495 187.797 380.854 186.29 384.997 182.7C389.251 179.013 393.547 175.729 397.857 172.856" stroke="black" stroke-width="7" stroke-linecap="round"/>
<path d="M228.852 186.171C229.041 185.034 229.854 187.487 229.99 187.707C231.281 189.805 234.128 191.243 235.965 192.829C238.249 194.801 240.697 198.625 243.419 199.714C247.032 201.159 250.493 203.584 254.458 203.584" stroke="black" stroke-width="7" stroke-linecap="round"/>
<path d="M131.058 121.923C135.467 113.547 147.413 96.9813 156.505 101.26C157.741 98.7867 161.712 99.0557 163.775 96.4764C165.351 94.5066 164.692 90.1876 167.793 89.3017C174.659 87.34 181.422 83.6801 188.361 80.5962C197.433 76.5642 205.953 71.9865 216.104 71.9865H252.073C256.695 71.9865 260.269 71.4898 264.222 70.3602C267.943 69.2971 271.375 66.8206 275.319 66.8206H342.093C376.483 66.8206 416.712 61.4003 449.619 72.3692C455.108 74.1988 457.846 72.4391 457.846 78.8743V90.067C457.846 99.9394 451.724 107.382 444.931 114.174C440.029 119.077 434.677 122.34 427.808 123.262C414.419 125.061 399.747 128.811 386.385 128.811C366.167 128.811 346.082 133.182 326.787 138.377C317.993 140.745 309.312 141.766 300.383 143.352C290.622 145.085 281.124 149.474 271.11 149.474H203.572C182.353 149.474 163.516 149.027 143.112 143.926C135.219 141.953 126.655 130.29 131.058 121.923Z" fill="#2E5DFF" stroke="black" stroke-width="7" stroke-linecap="round"/>
<path d="M201.738 52.6656C200.903 42.644 196.572 32.4943 196.572 21.2878C205.232 21.2878 218.907 12.6781 227.567 12.6781C232.068 12.6781 237.644 13.5532 242.013 12.5824C245.225 11.8686 248.099 9.2342 251.675 9.2342C263.286 9.2342 273.961 5.7903 286.114 5.7903H317.491C326.596 5.7903 360.16 0.200686 364.941 10.9561C367.724 17.2181 368.239 29.8424 372.594 34.6808C379.094 41.9034 380.464 59.8787 380.821 69.8851C381.174 79.7825 380.223 89.7844 379.099 98.7756C378.385 104.489 362.73 104.855 358.436 107.003C349.042 111.7 337.502 110.728 327.058 112.169C299.959 115.906 270.503 112.551 243.065 112.551C238.672 112.551 225.362 113.669 222.402 109.968C220.166 107.174 218.837 103.361 216.853 100.88C212.448 95.374 211.563 88.775 207.287 82.8954C205.689 80.6992 205.599 71.5572 205.086 68.7371C204.137 63.518 202.178 57.9483 201.738 52.6656Z" fill="#2E5DFF" stroke="black" stroke-width="7" stroke-linecap="round"/>
<path d="M524.231 101.812C524.231 110.485 526.041 118.054 527.572 126.479C528.128 129.535 529.912 133.32 530.792 136.564C531.933 140.77 533.037 145.003 535.167 148.837C538.058 154.042 538.008 160.831 540.149 166.335C543.054 173.804 544.239 182.248 546.589 189.969C548.646 196.729 549.386 204.641 550.477 211.598C552.228 222.759 555.609 233.625 557.282 244.831C559.997 263.023 566.712 281.201 567.975 299.512C568.34 304.811 571.381 313.098 574.051 317.495C577.181 322.652 576.761 329.885 580.005 334.75" stroke="black" stroke-width="7" stroke-linecap="round"/>
<path d="M489.236 56.9735C489.236 65.6268 493.61 73.2746 493.61 82.0049C493.61 86.7856 495.777 89.1535 498.835 92.2119C502.067 95.4431 503.535 97.2261 508.313 98.5913C510.738 99.2842 511.552 100.718 514.632 100.718C518.014 100.718 521.396 100.718 524.778 100.718C529.335 100.718 533.195 97.668 537.354 97.4369C540.503 97.262 549.384 96.8926 549.384 92.5157C549.384 81.189 546.973 71.5091 545.253 60.4973C543.881 51.7185 540.674 43.5759 539.542 34.7976C539.178 31.9808 539.637 26.3525 536.261 26.3525" stroke="black" stroke-width="7" stroke-linecap="round"/>
<path d="M512.201 44.9438C512.728 50.2182 515.194 55.4144 515.482 60.7404C515.719 65.1426 515.843 70.5966 516.636 74.9573C517.539 79.924 519.714 84.8411 520.95 89.7817" stroke="black" stroke-width="7" stroke-linecap="round"/>
<path d="M63.823 90.876C68.9109 92.1479 67.6291 118.806 67.9544 123.441C68.7716 135.086 67.1341 146.964 68.4404 158.558C69.7222 169.933 69.9825 181.303 71.2352 192.703C72.5902 205.033 75.6888 216.822 75.8527 229.278C75.9952 240.113 78.4569 250.91 79.9841 261.6C81.4539 271.889 81.9016 282.559 82.6573 292.95C84.0085 311.529 86.7887 330.468 86.7887 348.967" stroke="black" stroke-width="7" stroke-linecap="round"/>
<path d="M64.9165 91.9695C64.9165 90.9898 62.9184 94.9245 62.1217 95.7971C58.8641 99.365 56.1157 103.359 52.826 106.855C46.4608 113.618 42.0935 123.328 37.5155 131.339C30.5638 143.505 23.1123 155.143 20.0179 169.069C16.7944 183.574 4.76813 197.074 4.76813 212.266C4.76813 221.947 4.76813 231.627 4.76813 241.307C4.76813 243.819 3.43585 250.931 4.82888 248.841C5.88466 247.258 5.64346 245.754 6.53005 243.981C10.6364 235.768 15.6375 227.517 20.0786 219.375C23.6825 212.768 27.9752 206.602 31.8652 200.236C36.0583 193.375 44.0314 189.407 49.606 183.832C55.5908 177.848 59.1615 171.946 66.0101 168.522" stroke="black" stroke-width="7" stroke-linecap="round"/>
</svg>
