<svg width="158" height="148" viewBox="0 0 158 148" fill="none" xmlns="http://www.w3.org/2000/svg">
<path d="M41.2413 60.4309C45.0979 55.6101 53.3932 44.3506 60.4761 44.3506C65.7413 44.3506 70.9658 45.043 76.0562 45.043C82.7997 45.043 93.0863 47.1724 98.407 51.429C100.252 52.9047 102.477 54.2052 104.447 55.7376C106.046 56.9812 108.019 59.0719 109.948 59.623C111.97 60.2008 114.077 64.0212 115.526 65.4704C117.225 67.1698 119.8 69.6331 120.719 71.7024C123.437 77.8177 126.259 82.7775 126.259 89.3599V98.3618C126.259 102.813 124.414 106.641 124.182 110.826C123.341 125.951 113.176 133.778 102.023 140.948C100.046 142.219 96.7214 145.312 94.4062 145.449C90.799 145.661 86.818 146.141 82.9423 146.141C75.6845 146.141 67.7134 144.303 61.0147 141.563C56.5871 139.752 51.4972 138.18 48.0119 135.062C45.4628 132.781 43.5565 129.697 40.9336 127.599C36.6846 124.2 33.7123 118.411 33.4705 112.365C33.2122 105.909 32.778 98.6243 32.778 91.7835V84.1666C32.778 81.2359 34.1629 78.712 34.1629 75.8571C34.1629 70.602 38.1584 64.2845 41.2413 60.4309Z" stroke="black" stroke-width="3" stroke-linecap="round"/>
<path d="M54.517 42.7715C54.2507 35.0896 48.7177 27.9613 45.6227 21.601C44.609 19.5179 43.1787 15.502 43.1049 13.3738C42.9709 9.50781 42.5708 11.0761 45.4646 12.5992C47.2557 13.5419 48.9291 15.4188 50.4912 16.5821C53.3032 18.6762 55.7512 21.2765 58.17 23.7835C59.3064 24.9615 60.3698 26.77 61.7741 27.8158C65.6039 30.6678 65.2101 26.3054 67.4024 23.6174C71.9283 18.0683 75.4578 11.0891 79.1491 4.92623C79.2965 4.68024 81.3244 0.221477 81.5231 2.34191C81.7321 4.57358 82.095 6.68934 82.4046 8.8936C83.1019 13.8589 82.7966 19.0915 82.9708 24.1171C82.9967 24.8653 82.6856 27.2364 83.2512 27.7641C84.3168 28.7584 90.5702 27.6154 91.4787 27.4789C93.9664 27.1053 105.707 20.4144 105.863 24.9017C105.999 28.8367 104.999 31.5082 104.1 35.1249C104.018 35.4534 102.307 37.8043 102.012 38.1996C101.421 38.9933 101.277 39.788 100.476 40.524C98.5832 42.264 98.4532 44.9543 96.2071 46.1764" stroke="black" stroke-width="3" stroke-linecap="round"/>
<path d="M56.5668 82.5693C54.1022 82.5693 53.5419 85.8717 53.5419 87.7787C53.5419 90.8572 54.9702 92.5902 58.2472 92.6521C58.9195 92.6648 61.7149 93.0743 62.2056 92.316C63.3036 90.6191 63.831 90.3242 63.9794 88.2455C64.0582 87.1422 65.2108 85.4357 64.1101 84.7353C63.0892 84.0856 62.3242 83.4315 61.272 82.9054" stroke="black" stroke-width="3" stroke-linecap="round"/>
<path d="M103.285 83.5776C101.502 83.5776 96.8989 83.8751 96.8989 86.3411C96.8989 89.9365 96.1528 94.6686 101.137 94.6686C104.4 94.6686 110.679 94.5832 110.679 89.7953C110.679 88.0656 109.764 85.5942 107.654 85.5942" stroke="black" stroke-width="3" stroke-linecap="round"/>
<path d="M80.0933 98.365C81.5059 98.8359 81.3822 102.345 81.7737 103.593C82.168 104.85 82.4606 106.154 82.782 107.439" stroke="black" stroke-width="3" stroke-linecap="round"/>
<path d="M48.1654 74.5036C51.4802 72.3318 55.1156 70.8617 58.7336 69.2755C61.0862 68.2441 63.4814 66.7255 65.9782 66.1013" stroke="black" stroke-width="3" stroke-linecap="round"/>
<path d="M95.8897 65.093C98.4643 66.0657 100.834 66.0613 103.19 67.5764C103.887 68.0243 104.449 68.1178 105.3 68.1178" stroke="black" stroke-width="3" stroke-linecap="round"/>
<path d="M71.6909 122.228C72.2226 123.635 73.4344 127.835 75.4253 128.278C77.0355 128.636 79.3097 129.835 80.9521 129.137C82.9367 128.293 82.5581 125.27 83.8649 124.319C85.7187 122.971 89.193 127.269 91.1842 127.269C91.7552 127.269 93.259 125.531 93.6862 125.103C94.4154 124.374 94.509 123.831 94.8812 122.9" stroke="black" stroke-width="3" stroke-linecap="round"/>
<path d="M30.6889 97.0218C25.1712 96.47 19.4031 91.6776 14.4818 89.217C11.0217 87.4869 7.83467 86.8265 7.83467 82.5698C7.83467 80.4413 7.83467 78.3127 7.83467 76.1841C7.83467 72.3686 6.96862 73.6965 4.47375 71.4788C1.25112 68.6143 1.78502 65.8957 1.78502 61.6948C1.78502 58.7183 5.70645 60.2883 7.49858 60.6866C11.7272 61.6263 7.83467 69.3075 7.83467 73.5002" stroke="black" stroke-width="3" stroke-linecap="round"/>
<path d="M126.81 94.333C133.462 94.333 140.516 91.98 145.258 87.2378C146.833 85.6624 151.009 82.705 151.009 80.2172C151.009 77.9316 145.357 75.9452 143.988 73.7941C142.712 71.7882 143.462 64.1764 146.005 63.45C147.903 62.9076 150.719 63.3865 152.503 63.9355C153.64 64.2855 155.042 63.5464 155.042 65.1304C155.042 67.0847 155.714 68.8285 155.714 70.7693C155.714 72.9869 155.191 77.118 153.026 78.2007" stroke="black" stroke-width="3" stroke-linecap="round"/>
</svg>
