<svg width="114" height="143" viewBox="0 0 114 143" fill="none" xmlns="http://www.w3.org/2000/svg">
<path d="M2.50722 62.0539C3.26252 64.1687 2.73333 72.9953 5.95118 73.7104C8.44311 74.9563 22.2762 104.435 24.0835 106.443C25.482 107.997 26.3269 110.569 27.9396 111.859C28.774 112.526 29.6283 113.904 30.3239 114.773C31.5951 116.362 33.3064 118.069 34.4448 119.924C36.4869 123.252 39.7096 125.181 41.9803 128.019C44.3836 131.023 48.1092 131.797 51.1054 134.112C55.0518 137.162 62.2025 138.881 67.1478 138.881C71.5225 138.881 75.7436 141 80.2466 141C82.5786 141 84.7091 140.47 87.0168 140.47C88.1948 140.47 92.5148 139.838 93.3455 139.146C94.2707 138.375 96.6409 137.821 97.8785 137.821C99.6302 137.821 101.2 136.241 102.647 135.437C104.616 134.343 107.681 132.397 107.681 129.873C107.681 126.658 109.27 123.976 109.27 120.601C109.27 117.068 110.86 113.681 110.86 110.269C110.86 103.375 113.363 94.045 110.448 87.4862C108.885 83.9707 108.443 79.4678 107.416 75.5648C106.792 73.1941 105.894 68.828 104.384 66.9402C103.198 65.4577 102.475 62.5906 101.852 60.7587C100.575 56.9962 99.2585 54.3971 97.2015 51.045C96.0956 49.2427 95.38 46.6504 93.787 45.2167C92.8995 44.418 91.4686 43.1769 90.7257 42.1554C89.6096 40.6208 87.6782 38.3163 86.222 37.1514C85.5129 36.5841 84.3539 35.1678 83.72 34.9143C82.7363 34.5208 80.2766 32.2749 79.7168 31.3231C78.9215 29.9711 76.1942 28.9204 74.8305 28.409C70.4336 26.7602 66.4502 24.2278 61.9966 22.8457C56.7004 21.202 52.8074 17.4032 48.0735 14.6626C44.9032 12.8271 42.5886 9.49257 39.3311 7.71578C36.0531 5.92777 33.0759 4.39593 29.7646 2.94721C26.2521 1.41051 21.6966 2.18189 17.8726 2.18189C14.3816 2.18189 12.0342 1.69165 9.54233 4.18351C7.53272 6.19311 6.77917 9.29299 5.95118 11.9839C4.7366 15.9313 2.46076 19.7545 2.2423 23.9054C1.72459 33.7418 2.2423 43.7284 2.2423 53.5764C2.2423 56.1463 1.64095 59.6283 2.50722 62.0539Z" stroke="black" stroke-width="3" stroke-linecap="round"/>
<path d="M49.7147 131.701C49.7147 127.985 49.4066 119.949 53.1063 118.1C55.056 117.125 56.1832 116.628 58.4047 116.628C59.4528 116.628 63.5166 117.258 64.233 116.363C65.0337 115.362 66.3523 113.957 66.3523 112.654C66.3523 111.312 66.3466 108.98 67.2943 108.033C70.211 105.116 73.2741 104.441 77.1846 104.441C78.9508 104.441 80.7169 104.441 82.483 104.441C84.0323 104.441 85.5674 105.423 87.2516 104.942C89.6002 104.271 92.4805 99.0681 94.0218 97.1414C98.7012 91.2922 103.447 84.8251 106.62 78.4792" stroke="black" stroke-width="3" stroke-linecap="round"/>
<circle cx="40.2087" cy="51.4942" r="3.06477" fill="black" stroke="black"/>
<circle cx="53.2796" cy="41.9881" r="3.06477" fill="black" stroke="black"/>
<path d="M49.7148 60.6456C49.7148 61.5984 51.7304 61.7823 52.4523 61.9555C53.8371 62.2879 54.4947 62.1769 55.7491 61.3815C56.7446 60.7502 57.1326 58.9398 57.1326 57.864C57.1326 56.7056 56.3651 56.142 57.3975 56.142C58.8208 56.142 60.566 56.4334 61.9011 55.8771C63.8872 55.0495 66.2928 52.9445 67.0818 50.9024C67.6867 49.3367 65.6063 48.6334 64.5503 47.9294" stroke="black" stroke-width="3" stroke-linecap="round"/>
</svg>
