<svg width="126" height="184" viewBox="0 0 126 184" fill="none" xmlns="http://www.w3.org/2000/svg">
<path d="M19.9773 149.441C20.795 151.522 20.4097 155.038 20.6473 157.074C20.6473 160.121 23.1081 163.041 24.4844 165.621C26.6309 169.645 29.5734 171.375 32.7068 174.396C34.4408 176.067 36.1762 177.654 37.8839 179.387C41.6057 183.163 46.5807 181.735 51.466 181.735C54.3474 181.735 56.9393 181.942 59.5666 180.691C61.4978 179.772 64.1394 180.472 66.1445 179.517C67.8206 178.719 70.1206 179.504 71.9306 178.799C73.9464 178.014 76.9165 178.417 78.4781 176.744C81.5684 173.434 84.4843 170.791 86.9746 167.056C91.6262 160.081 92.4562 151.002 92.4562 142.395C92.4562 139.549 91.038 135.371 90.2635 132.675C89.5534 130.203 89.1459 127.669 88.4972 125.237C87.2664 120.623 87.5227 116.033 87.5227 111.276C87.5227 106.364 88.239 101.443 89.5935 96.7274C90.6028 93.2141 90.4904 89.2987 93.0043 86.289C94.4235 84.5901 95.1577 82.263 96.5674 80.4174C97.0766 79.7507 98.2355 78.3065 98.4555 77.4816C98.7539 76.3627 99.6478 76.6248 100.13 75.7202C101.259 73.6052 103.616 72.0503 104.516 69.8812C105.072 68.5414 106.41 66.832 107.531 66.032C112.961 62.1539 116.23 53.685 118.768 47.5691C119.47 45.8775 120.478 43.9474 120.93 42.252C121.311 40.8236 121.866 35.813 122.879 34.9452C123.882 34.086 123.701 29.207 123.701 27.8992C123.701 25.2101 122.202 22.1211 120.534 20.1357C117.344 16.3394 115.093 14.9989 110.545 12.6331C109.624 12.1539 104.985 9.66447 104.516 8.78392C103.507 6.89332 98.4857 6.52123 96.5369 6.1417C92.4955 5.35463 88.9147 5 84.721 5C76.472 5 66.9511 6.23182 60.7847 12.1764C58.9464 13.9486 56.9972 15.1615 55.1813 17.0042C53.9133 18.291 52.8509 19.7366 51.3442 20.7228C49.0493 22.2251 47.2872 25.6209 45.4363 27.7688C43.995 29.4413 42.0513 31.735 41.051 33.7708C35.6282 44.8072 27.5492 53.1935 23.9363 65.7711C22.4498 70.9456 19.3816 75.7881 18.4851 81.0698C17.6284 86.1171 17.3583 92.4332 17.3583 97.4777C17.3583 102.443 15.7139 107.544 15.7139 112.581V128.173V135.35C15.7139 137.919 16.6421 139.834 16.8102 142.265C17.003 145.053 18.995 146.942 19.9773 149.441Z" stroke="black" stroke-width="3" stroke-linecap="round"/>
<path d="M46.431 92.5217C46.0658 94.4933 45.8987 96.8525 47.9312 97.9864C50.883 99.6333 54.9262 100.076 58.2602 100.295C59.952 100.407 61.2196 98.0007 61.5301 96.4552" stroke="black" stroke-width="3" stroke-linecap="round"/>
<path d="M102.714 7.46653C103.093 3.67021 110.806 1.2548 114.144 2.20849C116.903 2.99659 112.12 10.3984 112.12 11.5815" stroke="black" stroke-width="3" stroke-linecap="round"/>
<path d="M41.0494 78.8933C41.0044 78.5339 39.3821 78.6701 39.0871 78.7069C38.2432 78.8124 37.3732 80.2217 37.0043 80.8775C36.3833 81.9814 36.8185 83.7435 37.7388 84.5718C38.4829 85.2415 39.2669 85.2076 40.2162 85.2076C41.6739 85.2076 43.4172 84.3531 43.4172 82.7411C43.4172 82.0539 43.4553 81.3549 43.4172 80.6692C43.3973 80.3101 42.5199 79.4853 42.2333 79.4853" stroke="black" stroke-width="3" stroke-linecap="round"/>
<path d="M74.3967 82.8393C73.787 82.2973 72.4772 82.6788 71.9193 83.1353C71.5086 83.4713 70.8871 84.027 70.6696 84.5166C70.5231 84.8461 70.7143 85.3294 70.6367 85.6786C70.5717 85.9711 70.136 86.9414 70.845 86.9831C71.5091 87.0221 71.7796 87.3258 72.2262 87.7724C72.7699 88.3161 75.186 87.683 75.186 86.8844C75.186 85.7339 75.904 84.0653 74.5941 83.6286" stroke="black" stroke-width="3" stroke-linecap="round"/>
<path d="M69.2661 78.8935C69.4237 78.1845 71.6757 78.3076 72.0944 78.2576C74.0559 78.0234 76.0105 77.8998 77.9483 77.5122" stroke="black" stroke-width="3" stroke-linecap="round"/>
<path d="M40.6548 71C41.1525 71.1106 41.7862 72.2585 42.0689 72.5566C43.4408 74.0037 45.0811 75.2048 46.8156 76.1852C47.2565 76.4343 47.4713 76.489 47.7584 76.9197" stroke="black" stroke-width="3" stroke-linecap="round"/>
<path d="M18.2433 85.0088C17.4098 85.6756 16.4193 86.1474 15.5698 86.8907C14.8833 87.4914 14.5451 88.3566 13.8223 88.9518C11.1326 91.1669 7.94262 94.1769 6.95188 97.6444C6.42013 99.5056 5.44207 100.791 5.33882 102.752C5.29436 103.597 4.7202 104.259 4.54723 105.038C4.42862 105.571 4.38812 106.453 4.12903 106.92C3.96412 107.216 3.84297 108.107 3.45692 108.129C2.41228 108.191 2.90566 108.395 2.50103 109.205C1.80556 110.596 1.72932 110.863 2.9491 112.281C3.61486 113.056 5.2817 112.7 6.2051 112.7C8.32408 112.7 8.56495 110.816 8.56495 109.07C8.56495 107.832 5.82155 108.129 5.06998 108.129" stroke="black" stroke-width="3" stroke-linecap="round"/>
<path d="M92.1753 92.2679C92.2744 91.4747 94.4711 93.3067 94.7592 93.5075C95.9274 94.3217 97.5371 95.4208 98.2243 96.7187C99.2288 98.6162 100.519 100.288 101.376 102.215C101.655 102.844 101.657 103.636 101.988 104.231C102.118 104.465 102.63 105.359 102.63 105.576C102.63 105.786 102.11 105.71 101.988 105.71C101.449 105.71 101.281 106.074 101.047 106.517C100.551 107.454 99.8311 108.559 99.4938 109.534C98.348 112.844 105.834 112.648 107.231 111.087C107.78 110.473 108.489 107.861 107.096 107.861C105.956 107.861 104.716 106.574 103.736 106.248" stroke="black" stroke-width="3" stroke-linecap="round"/>
</svg>
