<?xml version="1.0" encoding="UTF-8"?>
<svg id="_레이어_1" data-name="레이어_1" xmlns="http://www.w3.org/2000/svg" version="1.1" viewBox="0 0 841.89 595.28">
  <!-- Generator: Adobe Illustrator 29.1.0, SVG Export Plug-In . SVG Version: 2.1.0 Build 142)  -->
  <defs>
    <style>
      .st0 {
        fill: #2e5dff;
      }
    </style>
  </defs>
  <path class="st0" d="M95.95,280.45l46.57-26.5v16.61l-31.5,17.48,31.5,17.48v16.9l-46.57-26.5v-15.46Z"/>
  <path d="M206.58,287.46c0,26.98-10.27,39.08-25.73,39.08s-25.83-12.1-25.83-39.08,10.37-39.08,25.83-39.08,25.73,12.1,25.73,39.08ZM171.05,287.46c0,18.44,4.32,24.2,9.79,24.2s9.7-5.76,9.7-24.2-4.32-24.2-9.7-24.2-9.79,5.86-9.79,24.2ZM231.93,329.42h-16.23v-140.3h16.23v140.3Z"/>
  <path d="M289.93,247.8h15.17v80.18h-15.17v-35.05h-9.79c-4.9,21.8-18.53,32.46-33.99,32.65v-15.17c12.39-.96,20.45-12.96,20.45-36.01v-10.47h-20.45v-14.6h36.01v24.49c0,1.25,0,2.5-.1,3.75h7.87v-29.77ZM326.61,247.41v82h-15.36v-82h15.36Z"/>
  <path d="M374.72,310.4c7.59,0,16.13-.96,21.22-3.26v15.17c-5.09,2.3-13.35,3.26-21.51,3.26h-37.06v-15.17h20.17v-13.73h-16.42v-46.86h48.68v14.88h-32.65v17.09h33.61v14.88h-17.09v13.73h1.06ZM416.87,189.12v140.3h-16.23v-140.3h16.23Z"/>
  <path d="M452.4,311.27c6.43,0,14.12-.96,19.11-2.78v14.12c-4.9,2.02-13.64,2.98-20.55,2.98h-19.78v-76.43h15.84v62.13h5.38ZM475.54,247.8h14.98v80.18h-14.98v-38.12h-16.61v-15.17h16.61v-26.89ZM511.36,247.41v82h-15.17v-82h15.17Z"/>
  <path d="M549.29,282.08c5.67-4.32,8.74-7.2,8.74-11.81s-3.46-7.78-9.51-7.78c-6.43,0-9.89,4.51-9.89,9.41h-16.71c0-13.83,10.95-24.2,26.5-24.2,16.61,0,26.02,9.51,26.02,22.57,0,7.11-3.46,12.77-9.7,17.57-7.01,5.47-9.22,8.93-9.22,14.31h-15.84c0-9.51,2.59-14.79,9.6-20.07ZM537.96,319.33c0-5.86,4.32-10.18,10.18-10.18s10.18,4.32,10.18,10.18-4.32,10.08-10.18,10.08-10.18-4.22-10.18-10.08Z"/>
  <path d="M597.59,333.83h-16.8l35.14-89.78h16.8l-35.14,89.78Z"/>
  <path class="st0" d="M640.03,322.41v-16.9l31.5-17.48-31.5-17.48v-16.61l46.57,26.5v15.46l-46.57,26.5Z"/>
</svg>