<svg width="135" height="140" viewBox="0 0 135 140" fill="none" xmlns="http://www.w3.org/2000/svg">
<path d="M8.60663 110.789C9.19139 112.653 11.0863 119.836 13.3795 120.122C14.6 120.733 18.2601 125.936 19.3455 126.804C20.6152 127.82 22.4207 128.474 23.5084 129.562C25.8637 131.917 29.6951 132.532 32.948 132.532C37.505 132.532 39.1698 128.233 42.971 126.221C46.7178 124.237 49.7595 128.555 51.9333 130.729L51.9973 130.793C52.7325 131.529 55.4634 134.262 56.1493 134.414C57.2568 134.66 58.1454 135.756 59.1986 135.873C59.9085 135.952 61.1751 136.308 61.691 136.721C65.741 139.961 68.735 136.222 72.0852 134.547C74.3908 133.394 77.1376 127.826 80.7823 131.471C83.5408 134.229 87.992 135.457 91.4416 133.486C92.9539 132.622 94.5927 131.517 95.8432 130.516C97.6883 129.04 96.6763 127.282 99.7411 127.282C101.014 127.282 102.314 127.207 103.586 127.282C104.252 127.321 104.829 128.197 105.495 128.236C107.551 128.357 109.113 130.122 110.957 130.649C112.618 131.124 113.562 132.532 115.518 132.532C116.834 132.532 120.372 132.43 121.245 131.338C121.944 130.466 124.346 130.651 125.435 129.562C126.901 128.095 127.777 127.371 128.776 125.372C133.527 115.871 133.282 103.862 132.7 93.3945C132.297 86.1454 133.126 77.761 131.852 70.591C131.533 68.799 132.087 66.8889 131.48 65.1553C130.854 63.3658 130.867 61.5339 130.499 59.6931C130.09 57.6474 129.172 55.7882 128.67 53.7801C128.121 51.5841 127.565 47.5798 126.018 45.8784C124.286 43.9732 123.678 41.6769 121.723 39.9389C119.846 38.271 116.835 37.0752 114.351 37.0752C112.167 37.0752 110.602 39.7181 108.836 39.9389C107.016 40.1663 106.349 43.4332 105.283 44.4996C103.858 45.9247 100.494 55.249 98.7865 49.2724C98.5892 48.5821 97.477 48.3424 97.3812 47.5754C97.3005 46.9304 96.3708 45.4774 95.9493 44.9769C94.3178 43.0394 93.7435 40.8073 91.3886 39.4616C87.9126 37.4753 82.3566 38.7358 79.4831 41.6094C77.6809 43.4116 75.6511 45.9031 73.6231 47.3633C71.4217 48.9483 70.8964 48.0285 69.7498 46.0207L69.6988 45.9314C68.6091 44.0245 66.6337 42.3275 65.032 40.7874C63.1409 38.969 62.0053 38.507 59.4372 38.507C56.1869 38.507 51.9203 40.5352 49.6529 42.8026C47.6768 44.7787 47.6913 48.4924 45.9407 50.0679C45.0422 50.8766 43.4857 48.2338 42.7588 48.0262C41.3276 47.6172 40.2245 46.7146 39.0466 45.7723C37.4627 44.5052 35.9793 44.463 35.3079 42.1132C35.0623 41.2536 31.884 39.5086 31.0389 39.4616C28.5479 39.3232 22.6364 37.0988 20.6448 39.0904C19.1484 40.5867 17.6737 41.6937 16.2166 43.3329C14.4977 45.2667 12.1412 47.3273 10.7544 49.4845C10.1842 50.3715 9.67418 51.6851 8.84527 52.3482C7.51918 53.4091 6.6975 56.3879 6.6975 58.0756C6.6975 59.8197 5.87227 61.7904 4.54973 62.8484C0.875479 65.7878 1.92771 76.1949 3.11788 79.7655C3.6023 81.2187 3.32129 82.9171 3.35653 84.4322C3.40513 86.5223 4.2355 88.5959 4.31109 90.6369C4.41976 93.5709 6.06257 96.1454 6.67099 98.8833C7.52558 102.729 7.42785 107.031 8.60663 110.789Z" stroke="black" stroke-width="3" stroke-linecap="round"/>
<path d="M50.3554 79.6032C47.855 79.6032 44.1849 78.8279 44.0271 75.987C43.9092 73.8645 43.4316 72.744 44.5796 70.5628C45.4032 68.9979 49.6532 67.0541 51.159 66.9466C54.3667 66.7175 56.6837 66.5753 56.6837 70.2112C56.6837 73.216 57.9881 78.499 54.8756 80.0552" stroke="black" stroke-width="3" stroke-linecap="round"/>
<path d="M90.1339 80.9583C85.3054 80.9583 85.1616 77.1484 85.1616 73.2739C85.1616 70.3012 86.888 69.2999 89.5814 68.4021C90.89 67.9659 96.4765 66.9635 97.3662 68.0757C97.7126 68.5087 98.3632 69.0467 98.8227 69.5573C99.5076 70.3182 99.3818 71.2969 99.8523 72.1439C100.586 73.4649 100.167 76.2895 100.078 77.7941C100.012 78.9176 98.0367 80.7494 97.0649 81.0085C94.7569 81.624 93.4077 82.3144 91.0379 82.3144" stroke="black" stroke-width="3" stroke-linecap="round"/>
<path d="M67.9839 83.6713C65.8853 84.4344 62.5423 89.4027 61.6556 91.4561C61.2148 92.4768 61.2334 95.0476 60.6511 95.7754C60.2815 96.2374 60.4342 96.4217 60.2744 96.9808C60.185 97.2939 59.3052 97.5383 59.5964 97.684C60.1743 97.9729 61.8349 97.684 62.4341 97.684C65.4476 97.684 68.461 97.684 71.4745 97.684C72.2674 97.684 75.2163 98.2134 75.2163 97.0059C75.2163 94.9304 74.0423 92.951 73.8351 90.8785C73.7769 90.2963 72.5674 85.1423 72.253 85.0524C71.3945 84.8071 70.696 84.1674 70.696 83.2192" stroke="black" stroke-width="3" stroke-linecap="round"/>
<path d="M45.835 99.4914C46.052 101.444 48.7283 104.016 50.1041 105.142C52.1622 106.826 53.3911 108.756 55.8046 110.114C58.1891 111.455 61.7136 111.989 64.393 112.826C68.1318 113.994 72.4064 113.504 76.2712 113.504C81.7645 113.504 89.6301 110.448 92.8453 105.719C93.3924 104.915 93.9591 104.747 94.2265 103.811C94.2933 103.577 94.6201 102.471 94.7539 102.304C95.6265 101.213 95.2629 99.7072 96.0095 98.5874" stroke="black" stroke-width="3" stroke-linecap="round"/>
<path d="M65.2722 37.3387C65.2722 33.8475 64.806 30.5834 63.6776 27.2687C62.9738 25.2013 61.4762 23.2342 61.0282 21.1161C60.7811 19.9479 60.9364 18.6612 60.752 17.4623C60.3746 15.0095 60.526 12.4747 60.526 9.99137C60.526 9.12499 60.526 8.25861 60.526 7.39224C60.526 5.73358 60.9346 5.80371 62.6856 5.22002C67.06 3.76188 71.6631 2.80558 76.1961 2.00564C77.108 1.84471 78.0198 1.62895 78.9459 1.62895C79.287 1.62895 80.335 1.44901 80.5907 1.67918C80.8875 1.94629 80.6011 3.16955 80.6535 3.5626C81.2844 8.29459 80.5137 13.1089 80.4149 17.8515C80.3434 21.2833 79.494 24.3739 79.0589 27.7458C78.556 31.6431 78.3808 35.4198 78.3808 39.3728" stroke="black" stroke-width="3" stroke-linecap="round"/>
</svg>
