<svg width="89" height="162" viewBox="0 0 89 162" fill="none" xmlns="http://www.w3.org/2000/svg">
<path d="M2.65644 48C0.745723 50.1621 3.54724 54.3977 4.22155 56.6586C4.56144 57.7982 4.48416 59.1889 4.76333 60.3823C4.98567 61.3328 4.87111 62.3922 5.1546 63.319C6.63471 68.1575 7.80326 73.0157 7.80326 78.1233C7.80326 81.292 7.80326 84.4608 7.80326 87.6295C7.80326 91.2012 8.34503 94.7726 8.34503 98.3468C8.34503 104.118 8.61592 109.975 8.61592 115.785C8.61592 119.421 9.56659 123.076 9.69946 126.684C9.85504 130.909 12.4418 134.43 13.2812 138.37C13.698 140.326 14.9368 143.751 16.4716 145.061C17.4162 145.867 17.449 147.134 18.2173 147.997C18.6749 148.512 19.3803 150.079 19.4513 150.722C19.7251 153.201 21.7861 155.099 23.3942 156.716C24.8584 158.189 27.4459 159.986 29.5343 159.986C31.595 159.986 33.6854 160.104 35.7044 159.653C37.536 159.244 38.9899 158.027 40.8663 157.791C44.2619 157.364 45.9981 154.571 45.9981 151.403C45.9981 149.477 46.1157 148.014 44.5082 146.756C42.626 145.283 41.0241 143.874 38.9701 142.669C38.4116 142.341 37.6895 141.275 37.1943 140.777C36.2606 139.838 35.7065 138.358 35.0272 137.219C33.8939 135.32 33.2402 132.931 32.4689 130.862C31.548 128.392 30.8588 125.28 29.459 123.051C28.1606 120.983 27.7496 118.011 27.1565 115.679C26.1647 111.779 25.4172 107.707 24.1918 103.872C23.5066 101.728 23.0592 99.5284 22.5665 97.3477C22.278 96.0708 21.5224 94.7734 21.3626 93.4877C21.217 92.3165 20.7552 91.3934 20.3994 90.2483C19.9482 88.7958 19.7325 87.3325 19.1804 85.8888C17.8843 82.4991 17.6855 78.7163 16.3211 75.3834C15.1917 72.6245 14.9812 69.3552 14.5904 66.407C14.2882 64.1266 14.0336 61.7702 14.0336 59.459C14.0336 58.0526 13.809 56.028 12.9501 54.948C12.6899 54.6209 11.9916 53.958 11.8816 53.5705C11.6051 52.5972 11.2938 52.8796 10.6476 52.3596C10.232 52.0252 9.68883 51.5764 9.42857 51.1183C8.98229 50.3327 8.25966 50.6174 7.80326 50.0435C7.10463 49.1651 4.48885 49.6348 3.4691 49.6348" stroke="black" stroke-width="3" stroke-linecap="round"/>
<path d="M43 140.271C43 139.297 44.1391 138.106 44.6465 137.33C45.7931 135.577 47.1563 133.869 48.3511 132.127C49.3905 130.612 50.0624 129.164 50.897 127.513C52.1973 124.941 53.7872 122.525 55.0132 119.913C57.5526 114.503 60.0304 108.468 61.3552 102.571C61.9066 100.116 62.6926 97.6338 63.581 95.2719C64.6167 92.5187 65.8156 89.8201 66.8587 87.0684C68.0464 83.9356 68.9054 80.568 70.3804 77.5379C71.6281 74.9746 72.3627 72.3552 73.3227 69.6963C73.8583 68.2129 74.5897 66.8142 75.0454 65.2929C75.9623 62.232 75.8094 58.7721 77.3627 55.8528C78.4446 53.8194 80.1411 51.6205 81.6771 49.9113C82.6003 48.8839 83.5116 47.6534 84.7109 46.9556C85.1038 46.727 86.9062 45.2271 86.9062 46.5183C86.9062 48.683 87.2462 51.2001 86.6318 53.2892C86.1737 54.8466 86.0807 56.6652 85.8085 58.2807C85.4738 60.2673 84.2509 61.9897 83.6285 63.8754C82.5365 67.1833 81.3402 70.4976 80.8081 73.9187C79.8637 79.9905 80.0458 86.1882 80.0458 92.3464C80.0458 96.633 80.577 101.265 79.9086 105.496C79.3099 109.287 78.6738 113.214 78.6738 117.047C78.6738 121.635 77.5091 126.723 76.4175 131.162C75.3991 135.304 72.6035 138.436 70.7158 142.171C69.4223 144.73 67.6584 147.038 66.1879 149.5C65.1296 151.271 63.9159 153.157 62.4834 154.657C60.5406 156.692 58.6756 157.709 55.8974 158.517C54.6574 158.878 53.8078 159 52.4673 159C51.5064 159 50.6611 158.457 49.5859 158.457C48.5175 158.457 47.8522 157.638 46.9638 157.386C46.0855 157.138 45.4466 156.557 44.6465 156.557" stroke="black" stroke-width="3" stroke-linecap="round"/>
<path d="M14 54.08C14 44.8225 14.939 35.953 18.1216 27.2899C20.9432 19.6094 23.8896 12.1978 29.6774 6.39358C31.5354 4.53032 33.7579 3.01927 36.4094 2.5358C37.3693 2.36078 37.9944 2 39.0045 2C39.9917 2 40.9788 2 41.966 2C43.6998 2 45.8053 2.46543 47.4004 3.16346C48.5977 3.68741 49.7409 3.94912 50.6824 4.89333C51.1531 5.36534 51.7284 5.69729 52.1937 6.16395C52.9314 6.90371 53.2246 7.85993 54.224 8.32247C55.4344 8.88273 56.8093 11.7388 57.1702 12.9151C57.513 14.0323 58.4445 14.9776 58.8494 16.1146C59.3781 17.5991 60.1452 18.9728 60.6964 20.4469C62.6286 25.6139 64.544 30.9203 66.2683 36.1077C67.1096 38.6387 68.2862 41.1036 69.1687 43.6701C69.8395 45.6209 70.9774 47.3626 71.4279 49.3956C71.9265 51.6454 73.0794 53.8287 73.7635 56.0242C74.5575 58.572 74.1762 61.5215 75 64" stroke="black" stroke-width="3" stroke-linecap="round"/>
<path d="M27.5098 46.1535C25.4078 46.1535 26.6404 48.5422 27.5098 49.3149C29.0583 50.6914 30.5497 49.4275 31.9885 48.788C32.5834 48.5236 35.1451 45.0607 33.5399 44.6021C32.0408 44.1738 30.7971 44.0459 29.0905 44.0459" stroke="black" stroke-width="3" stroke-linecap="round"/>
<path d="M56.4897 42.9918C55.145 43.6246 53.3983 43.9241 53.3283 45.7434C53.2551 47.6467 54.485 48.2608 56.2555 48.2608C61.0781 48.2608 59.791 45.3791 58.0704 41.938" stroke="black" stroke-width="3" stroke-linecap="round"/>
<path d="M37.521 55.1108C37.8049 57.6663 40.4237 58.2723 42.4973 58.2723C45.0068 58.2723 42.7509 54.6856 46.1856 55.667C46.5476 55.7704 51.5996 62.3659 51.7474 59.853C51.852 58.0748 52.915 55.8443 54.3819 55.1108" stroke="black" stroke-width="3" stroke-linecap="round"/>
</svg>
