<svg width="147" height="126" viewBox="0 0 147 126" fill="none" xmlns="http://www.w3.org/2000/svg">
<path d="M5.34781 54.8833C3.23989 59.0992 1.65381 73.984 1.65381 78.64C2.47977 80.2919 9.72848 96.3732 11.6665 96.9269C13.8792 97.5591 18.1553 100.645 19.8322 102.322C24.7739 107.264 31.9227 108.495 37.0871 112.626C49.6489 122.676 69.8562 124 85.6437 124H102.072C107.376 124 112.103 121.655 117.14 121.375C124.889 120.945 129.042 112.378 134.2 108.252C136.212 106.643 137.629 101.881 138.818 99.503C140.65 95.8387 141.835 92.6912 143.581 89.0042C145.503 84.9474 144.262 78.1338 144.262 73.645C144.262 68.3663 143.387 62.7886 143.387 57.9455C143.387 55.593 142.632 53.5416 142.512 51.3837C142.394 49.2528 140.967 47.874 140.762 46.1344C140.372 42.8182 137.558 36.0049 135.513 33.4484C133.613 31.0738 131.548 26.3459 130.069 23.3871C128.248 19.7443 124.679 18.2006 122.584 14.6382C121.305 12.464 117.659 9.97868 115.828 8.51389C113.14 6.36384 108.475 2.95019 104.891 2.43824C100.057 1.74761 94.6028 2.38963 89.7266 2.38963C86.5998 2.38963 79.9097 2.07742 77.5752 3.945C74.2852 6.57705 68.8167 5.12436 65.0837 8.02784C63.1099 9.56305 60.126 9.06469 58.0845 10.6525C56.4875 11.8947 53.4349 12.4184 51.5228 13.3744C49.0774 14.5971 46.9757 16.2313 44.5237 17.4573C42.8094 18.3144 40.2067 18.6267 38.7882 19.8875C35.6469 22.6798 30.3145 23.1119 27.2202 26.2062C25.5951 27.8313 24.4058 29.8059 22.6513 31.3098C22.0667 31.8108 17.5825 34.785 17.4505 35.2468C16.5755 38.3093 12.2518 40.3189 11.229 43.8985C10.1975 47.5088 7.00945 51.56 5.34781 54.8833Z" stroke="black" stroke-width="3" stroke-linecap="round"/>
<path d="M2.44324 62.5532C2.49471 62.1414 3.27075 61.8407 3.61792 61.7374C6.34354 60.9271 9.10647 60.4739 11.8733 59.8123C13.1868 59.4982 14.3529 59.4717 15.6911 59.2576C17.5471 58.9606 19.3585 58.7355 21.2545 58.7355C26.8088 58.7355 32.4526 58.4831 37.9122 59.5512C39.9685 59.9536 41.8088 60.1906 43.8019 60.938C45.5822 61.6056 47.8231 62.4476 49.7243 62.5532C50.0716 62.5725 50.8347 62.6993 51.1274 62.9121C51.8088 63.4077 52.8777 63.0488 53.6888 63.2874C55.666 63.8689 57.6194 64.5409 59.5786 65.2125C61.1075 65.7368 62.5099 66.5105 64.0489 67.0235C66.419 67.8136 68.8932 68.3633 71.1623 69.4381C72.6545 70.145 74.4703 70.484 75.8773 71.3633C77.0332 72.0857 79.0768 73.0584 80.4292 73.419C81.9702 73.83 83.5187 74.7245 84.9648 75.4095C86.2852 76.0349 87.2536 77.3163 88.6357 77.9709C90.2636 78.742 91.957 80.4509 93.3507 81.5766C94.8228 82.7655 96.4415 83.9318 97.9516 85.0353C100.159 86.6487 103.003 87.9331 104.934 89.8646C106.913 91.8432 108.706 94.0942 110.367 96.309C113.157 100.028 115.182 103.977 117.562 107.844C118.769 109.804 118.856 111.89 119.748 113.929C120.008 114.523 120.465 115.715 120.499 116.295C120.55 117.169 121.086 117.472 121.086 118.351" stroke="black" stroke-width="3" stroke-linecap="round"/>
<path d="M47.3741 34.9485V34.6548" stroke="black" stroke-width="3" stroke-linecap="round"/>
<path d="M88.1988 41.6538V41.3601" stroke="black" stroke-width="3" stroke-linecap="round"/>
<path d="M54.4225 40.8218C54.5104 41.6127 55.7234 42.4512 56.1193 43.1711C56.5037 43.87 57.2628 44.6185 57.9466 44.9984C60.0195 46.15 62.0342 46.7887 64.4237 46.9726C67.2375 47.189 70.0725 47.5762 72.9238 47.5762C75.3786 47.5762 77.7204 46.2384 79.6783 44.9332" stroke="black" stroke-width="3" stroke-linecap="round"/>
</svg>
