<svg width="283" height="354" viewBox="0 0 283 354" fill="none" xmlns="http://www.w3.org/2000/svg">
<path d="M197.04 58.8631C190.248 54.2445 184.916 49.4187 177.881 45.1473C174.605 43.1581 168.201 42.4785 166.125 39.2691C161.182 31.6304 148.613 27.8953 142.177 20.6549C129.717 6.63816 108.058 4 90.2527 4C86.0073 4 81.7619 4 77.5166 4C72.8113 4 71.1408 8.92514 66.631 10.8579C56.8346 15.0564 52.5123 20.6968 45.2954 27.5128C40.7488 31.8068 32.4505 43.1255 32.4505 50.0458C32.4505 58.2465 24.6845 70.6361 21.1295 78.4571C12.9609 96.4279 12.543 120.839 9.04655 140.069C7.11935 150.669 8.93769 163.237 8.93769 174.032C8.93769 186.386 6.9783 198.318 6.9783 210.716C6.9783 231.952 0.0637507 257.694 6.54288 278.751C10.3902 291.255 12.3827 305.273 22.1092 315C35.8452 328.736 49.4009 336.827 66.631 344.935C77.2842 349.948 97.5795 348.854 109.085 348.854C124.461 348.854 145.041 352.456 159.702 347.874C171.812 344.09 183.525 343.082 195.08 336.662C208.673 329.111 221.424 318.285 233.18 307.598C248.483 293.685 258.784 273.186 265.183 253.279C266.781 248.309 266.217 241.544 267.143 236.297C268.818 226.801 272.379 217.789 273.347 208.104C274.611 195.464 276.887 182.799 277.375 170.113C278.596 138.361 284.717 105.1 258.761 84.3353C253.369 80.0218 247.701 81.9894 244.065 75.6268C242.571 73.0126 231.177 69.7138 227.955 67.1361C223.627 63.6742 216.643 66.7127 212.715 61.8022C209.285 57.5148 202.294 56.9037 197.04 56.9037" stroke="black" stroke-width="7" stroke-linecap="round"/>
<path d="M71.6384 135.279C67.24 135.829 65.5128 147.945 68.8081 148.886C74.8795 150.621 79.476 140.152 79.476 135.279" stroke="black" stroke-width="7" stroke-linecap="round"/>
<path d="M218.593 125.482C217.666 118.068 206.717 137.064 213.803 139.089C223.056 141.733 222.512 127.779 222.512 121.563" stroke="black" stroke-width="7" stroke-linecap="round"/>
<path d="M110.826 225.412C111.27 221.86 150.119 243.99 154.803 244.897C159.187 245.745 163.426 246.862 167.757 247.945C177.874 250.474 183.281 242.766 190.508 236.733C198.41 230.136 209.372 224.917 215.654 216.703C222.301 208.01 225.976 198.679 230.349 188.183" stroke="black" stroke-width="7" stroke-linecap="round"/>
<path d="M196.968 116.388C198.378 116.211 200.463 112.602 201.272 111.617C204.57 107.602 208.542 106.228 212.318 102.956C216.195 99.5961 220.11 96.6034 224.038 93.9849" stroke="black" stroke-width="7" stroke-linecap="round"/>
<path d="M70.0179 106.12C70.1907 105.084 70.9313 107.319 71.0551 107.52C72.2317 109.432 74.8265 110.742 76.5003 112.187C78.5819 113.985 80.8133 117.47 83.2937 118.462C86.586 119.779 89.7408 121.989 93.3543 121.989" stroke="black" stroke-width="7" stroke-linecap="round"/>
</svg>
